Radio-Canada-Medium.ufo
<glyph name="exclam" format="1">
  <advance width="344"/>
  <unicode hex="0021"/>
  <outline>
    <contour>
      <point x="91" y="69" type="curve" smooth="yes"/>
      <point x="91" y="24"/>
      <point x="125" y="-11"/>
      <point x="172" y="-11" type="curve" smooth="yes"/>
      <point x="220" y="-11"/>
      <point x="253" y="24"/>
      <point x="253" y="69" type="curve" smooth="yes"/>
      <point x="253" y="115"/>
      <point x="220" y="149"/>
      <point x="172" y="149" type="curve" smooth="yes"/>
      <point x="125" y="149"/>
      <point x="91" y="115"/>
    </contour>
    <contour>
      <point x="124" y="240" type="line"/>
      <point x="220" y="240" type="line"/>
      <point x="242" y="521" type="line"/>
      <point x="242" y="690" type="line"/>
      <point x="102" y="690" type="line"/>
      <point x="102" y="521" type="line"/>
    </contour>
  </outline>
</glyph>
<glyph name="quotedbl" format="1">
  <advance width="456.0"/>
  <unicode hex="0022"/>
  <outline>
    <contour>
      <point x="56" y="720" type="line"/>
      <point x="84" y="413" type="line"/>
      <point x="172" y="413" type="line"/>
      <point x="200" y="720" type="line"/>
    </contour>
    <contour>
      <point x="256" y="720" type="line"/>
      <point x="284" y="413" type="line"/>
      <point x="372" y="413" type="line"/>
      <point x="400" y="720" type="line"/>
    </contour>
  </outline>
</glyph>
<glyph name="dollar" format="1">
  <advance width="600.0"/>
  <unicode hex="0024"/>
  <outline>
    <contour>
      <point x="25" y="82" type="line"/>
      <point x="101" y="25"/>
      <point x="201" y="-11"/>
      <point x="297" y="-11" type="curve"/>
      <point x="476" y="-11"/>
      <point x="567" y="81"/>
      <point x="567" y="190" type="curve"/>
      <point x="567" y="286"/>
      <point x="502" y="362"/>
      <point x="329" y="417" type="curve" smooth="yes"/>
      <point x="223" y="450"/>
      <point x="192" y="480"/>
      <point x="192" y="517" type="curve"/>
      <point x="192" y="553"/>
      <point x="228" y="586"/>
      <point x="297" y="586" type="curve" smooth="yes"/>
      <point x="367" y="586"/>
      <point x="432" y="559"/>
      <point x="485" y="516" type="curve"/>
      <point x="549" y="621" type="line"/>
      <point x="487" y="669"/>
      <point x="394" y="701"/>
      <point x="307" y="701" type="curve"/>
      <point x="149" y="701"/>
      <point x="58" y="612"/>
      <point x="58" y="505" type="curve"/>
      <point x="58" y="416"/>
      <point x="117" y="342"/>
      <point x="284" y="289" type="curve" smooth="yes"/>
      <point x="399" y="253"/>
      <point x="429" y="217"/>
      <point x="429" y="179" type="curve"/>
      <point x="429" y="139"/>
      <point x="387" y="106"/>
      <point x="311" y="106" type="curve"/>
      <point x="231" y="106"/>
      <point x="151" y="139"/>
      <point x="93" y="189" type="curve"/>
    </contour>
    <contour>
      <point x="254" y="-100" type="line"/>
      <point x="368" y="-100" type="line"/>
      <point x="368" y="40" type="line"/>
      <point x="254" y="40" type="line"/>
    </contour>
    <contour>
      <point x="254" y="660" type="line"/>
      <point x="368" y="660" type="line"/>
      <point x="368" y="790" type="line"/>
      <point x="254" y="790" type="line"/>
    </contour>
  </outline>
</glyph>
<glyph name="ampersand" format="1">
  <advance width="660.0"/>
  <unicode hex="0026"/>
  <outline>
    <contour>
      <point x="43" y="170" type="curve" smooth="yes"/>
      <point x="43" y="60"/>
      <point x="130" y="-11"/>
      <point x="250" y="-11" type="curve" smooth="yes"/>
      <point x="436" y="-11"/>
      <point x="546" y="140"/>
      <point x="612" y="296" type="curve"/>
      <point x="502" y="338" type="line"/>
      <point x="458" y="204"/>
      <point x="378" y="99"/>
      <point x="266" y="99" type="curve" smooth="yes"/>
      <point x="211" y="99"/>
      <point x="174" y="131"/>
      <point x="174" y="179" type="curve" smooth="yes"/>
      <point x="174" y="220"/>
      <point x="198" y="259"/>
      <point x="254" y="291" type="curve" smooth="yes"/>
      <point x="373" y="359" type="line" smooth="yes"/>
      <point x="459" y="408"/>
      <point x="503" y="458"/>
      <point x="503" y="534" type="curve" smooth="yes"/>
      <point x="503" y="626"/>
      <point x="429" y="701"/>
      <point x="313" y="701" type="curve" smooth="yes"/>
      <point x="197" y="701"/>
      <point x="118" y="626"/>
      <point x="118" y="527" type="curve" smooth="yes"/>
      <point x="118" y="454"/>
      <point x="160" y="400"/>
      <point x="208" y="344" type="curve" smooth="yes"/>
      <point x="500" y="0" type="line"/>
      <point x="662" y="0" type="line"/>
      <point x="316" y="406" type="line" smooth="yes"/>
      <point x="273" y="456"/>
      <point x="241" y="483"/>
      <point x="241" y="527" type="curve" smooth="yes"/>
      <point x="241" y="568"/>
      <point x="268" y="602"/>
      <point x="313" y="602" type="curve" smooth="yes"/>
      <point x="358" y="602"/>
      <point x="385" y="568"/>
      <point x="385" y="527" type="curve" smooth="yes"/>
      <point x="385" y="487"/>
      <point x="358" y="462"/>
      <point x="312" y="437" type="curve" smooth="yes"/>
      <point x="188" y="369" type="line" smooth="yes"/>
      <point x="94" y="318"/>
      <point x="43" y="253"/>
    </contour>
  </outline>
</glyph>
<glyph name="quotesingle" format="1">
  <advance width="256.0"/>
  <unicode hex="0027"/>
  <outline>
    <contour>
      <point x="56" y="720" type="line"/>
      <point x="84" y="413" type="line"/>
      <point x="172" y="413" type="line"/>
      <point x="200" y="720" type="line"/>
    </contour>
  </outline>
</glyph>
<glyph name="parenleft" format="1">
  <advance width="313"/>
  <unicode hex="0028"/>
  <outline>
    <contour>
      <point x="69" y="268" type="curve" smooth="yes"/>
      <point x="69" y="44"/>
      <point x="158" y="-117"/>
      <point x="300" y="-249" type="curve"/>
      <point x="357" y="-195" type="line"/>
      <point x="249" y="-70"/>
      <point x="186" y="85"/>
      <point x="186" y="268" type="curve" smooth="yes"/>
      <point x="186" y="451"/>
      <point x="249" y="605"/>
      <point x="357" y="730" type="curve"/>
      <point x="300" y="784" type="line"/>
      <point x="158" y="652"/>
      <point x="69" y="492"/>
    </contour>
  </outline>
</glyph>
<glyph name="comma" format="1">
  <advance width="256"/>
  <unicode hex="002C"/>
  <outline>
    <contour>
      <point x="59" y="-169" type="line"/>
      <point x="134" y="-169" type="line"/>
      <point x="184" y="-39" type="line" smooth="yes"/>
      <point x="200" y="4"/>
      <point x="209" y="30"/>
      <point x="209" y="64" type="curve" smooth="yes"/>
      <point x="209" y="115"/>
      <point x="176" y="149"/>
      <point x="128" y="149" type="curve" smooth="yes"/>
      <point x="81" y="149"/>
      <point x="46" y="115"/>
      <point x="46" y="69" type="curve" smooth="yes"/>
      <point x="46" y="28"/>
      <point x="70" y="2"/>
      <point x="100" y="-7" type="curve"/>
    </contour>
  </outline>
</glyph>
<glyph name="period" format="1">
  <advance width="256"/>
  <unicode hex="002E"/>
  <outline>
    <contour>
      <point x="47" y="69" type="curve" smooth="yes"/>
      <point x="47" y="24"/>
      <point x="81" y="-11"/>
      <point x="128" y="-11" type="curve" smooth="yes"/>
      <point x="176" y="-11"/>
      <point x="209" y="24"/>
      <point x="209" y="69" type="curve" smooth="yes"/>
      <point x="209" y="115"/>
      <point x="176" y="149"/>
      <point x="128" y="149" type="curve" smooth="yes"/>
      <point x="81" y="149"/>
      <point x="47" y="115"/>
    </contour>
  </outline>
</glyph>
<glyph name="slash" format="1">
  <advance width="371"/>
  <unicode hex="002F"/>
  <outline>
    <contour>
      <point x="0" y="-30" type="line"/>
      <point x="123" y="-30" type="line"/>
      <point x="371" y="720" type="line"/>
      <point x="248" y="720" type="line"/>
    </contour>
  </outline>
</glyph>
<glyph name="one" format="1">
  <advance width="600.0"/>
  <unicode hex="0031"/>
  <outline>
    <contour>
      <point x="86" y="0" type="line"/>
      <point x="528" y="0" type="line"/>
      <point x="528" y="104" type="line"/>
      <point x="86" y="104" type="line"/>
    </contour>
    <contour>
      <point x="78" y="601" type="line"/>
      <point x="121" y="500" type="line"/>
      <point x="318" y="584" type="line"/>
      <point x="286" y="690" type="line"/>
    </contour>
    <contour>
      <point x="244" y="0" type="line"/>
      <point x="378" y="0" type="line"/>
      <point x="378" y="690" type="line"/>
      <point x="286" y="690" type="line"/>
      <point x="244" y="637" type="line"/>
    </contour>
  </outline>
</glyph>
<glyph name="two" format="1">
  <advance width="600.0"/>
  <unicode hex="0032"/>
  <outline>
    <contour>
      <point x="43" y="592" type="curve"/>
      <point x="122" y="497" type="line"/>
      <point x="169" y="546"/>
      <point x="219" y="577"/>
      <point x="279" y="577" type="curve"/>
      <point x="351" y="577"/>
      <point x="388" y="532"/>
      <point x="388" y="479" type="curve"/>
      <point x="388" y="433"/>
      <point x="362" y="394"/>
      <point x="288" y="321" type="curve" smooth="yes"/>
      <point x="54" y="89" type="line"/>
      <point x="115" y="0" type="line"/>
      <point x="371" y="233" type="line" smooth="yes"/>
      <point x="485" y="337"/>
      <point x="526" y="407"/>
      <point x="526" y="491" type="curve"/>
      <point x="526" y="612"/>
      <point x="424" y="701"/>
      <point x="291" y="701" type="curve" smooth="yes"/>
      <point x="191" y="701"/>
      <point x="109" y="657"/>
    </contour>
    <contour>
      <point x="54" y="0" type="line"/>
      <point x="536" y="0" type="line"/>
      <point x="536" y="118" type="line"/>
      <point x="124" y="118" type="line"/>
      <point x="54" y="89" type="line"/>
    </contour>
  </outline>
</glyph>
<glyph name="three" format="1">
  <advance width="600.0"/>
  <unicode hex="0033"/>
  <outline>
    <contour>
      <point x="34" y="84" type="line"/>
      <point x="99" y="22"/>
      <point x="179" y="-11"/>
      <point x="281" y="-11" type="curve"/>
      <point x="421" y="-11"/>
      <point x="541" y="66"/>
      <point x="541" y="211" type="curve" smooth="yes"/>
      <point x="541" y="346"/>
      <point x="435" y="416"/>
      <point x="293" y="416" type="curve" smooth="yes"/>
      <point x="228" y="416" type="line"/>
      <point x="175" y="390" type="line"/>
      <point x="175" y="314" type="line"/>
      <point x="262" y="314" type="line" smooth="yes"/>
      <point x="354" y="314"/>
      <point x="406" y="272"/>
      <point x="406" y="211" type="curve" smooth="yes"/>
      <point x="406" y="145"/>
      <point x="349" y="109"/>
      <point x="270" y="109" type="curve"/>
      <point x="204" y="109"/>
      <point x="152" y="134"/>
      <point x="110" y="180" type="curve"/>
    </contour>
    <contour>
      <point x="59" y="570" type="line"/>
      <point x="468" y="570" type="line"/>
      <point x="517" y="601" type="line"/>
      <point x="517" y="690" type="line"/>
      <point x="59" y="690" type="line"/>
    </contour>
    <contour>
      <point x="175" y="390" type="line"/>
      <point x="310" y="390" type="line"/>
      <point x="517" y="601" type="line"/>
      <point x="462" y="690" type="line"/>
    </contour>
  </outline>
</glyph>
<glyph name="five" format="1">
  <advance width="600.0"/>
  <unicode hex="0035"/>
  <outline>
    <contour>
      <point x="45" y="84" type="line"/>
      <point x="111" y="22"/>
      <point x="191" y="-11"/>
      <point x="293" y="-11" type="curve"/>
      <point x="436" y="-11"/>
      <point x="552" y="72"/>
      <point x="552" y="213" type="curve" smooth="yes"/>
      <point x="552" y="347"/>
      <point x="455" y="431"/>
      <point x="321" y="431" type="curve"/>
      <point x="252" y="431"/>
      <point x="189" y="403"/>
      <point x="148" y="359" type="curve"/>
      <point x="143" y="272" type="line"/>
      <point x="185" y="307"/>
      <point x="228" y="326"/>
      <point x="281" y="326" type="curve"/>
      <point x="368" y="326"/>
      <point x="417" y="278"/>
      <point x="417" y="216" type="curve" smooth="yes"/>
      <point x="417" y="149"/>
      <point x="362" y="109"/>
      <point x="281" y="109" type="curve"/>
      <point x="216" y="109"/>
      <point x="163" y="134"/>
      <point x="121" y="180" type="curve"/>
    </contour>
    <contour>
      <point x="84" y="313" type="line"/>
      <point x="143" y="272" type="line"/>
      <point x="202" y="342" type="line"/>
      <point x="221" y="690" type="line"/>
      <point x="105" y="690" type="line"/>
    </contour>
    <contour>
      <point x="105" y="690" type="line"/>
      <point x="163" y="569" type="line"/>
      <point x="506" y="569" type="line"/>
      <point x="506" y="690" type="line"/>
    </contour>
  </outline>
</glyph>
<glyph name="six" format="1">
  <advance width="600.0"/>
  <unicode hex="0036"/>
  <outline>
    <contour>
      <point x="43" y="320" type="curve"/>
      <point x="43" y="110"/>
      <point x="156" y="-11"/>
      <point x="308" y="-11" type="curve"/>
      <point x="453" y="-11"/>
      <point x="557" y="87"/>
      <point x="557" y="225" type="curve" smooth="yes"/>
      <point x="557" y="359"/>
      <point x="465" y="446"/>
      <point x="341" y="446" type="curve" smooth="yes"/>
      <point x="271" y="446"/>
      <point x="205" y="411"/>
      <point x="170" y="356" type="curve"/>
      <point x="170" y="270" type="line"/>
      <point x="207" y="307"/>
      <point x="259" y="335"/>
      <point x="312" y="335" type="curve" smooth="yes"/>
      <point x="377" y="335"/>
      <point x="425" y="291"/>
      <point x="425" y="222" type="curve" smooth="yes"/>
      <point x="425" y="155"/>
      <point x="376" y="104"/>
      <point x="313" y="104" type="curve"/>
      <point x="237" y="104"/>
      <point x="177" y="174"/>
      <point x="177" y="320" type="curve"/>
      <point x="177" y="511"/>
      <point x="270" y="586"/>
      <point x="355" y="586" type="curve"/>
      <point x="397" y="586"/>
      <point x="431" y="573"/>
      <point x="466" y="545" type="curve"/>
      <point x="527" y="651" type="line"/>
      <point x="478" y="685"/>
      <point x="419" y="701"/>
      <point x="357" y="701" type="curve"/>
      <point x="195" y="701"/>
      <point x="43" y="573"/>
    </contour>
  </outline>
</glyph>
<glyph name="seven" format="1">
  <advance width="600.0"/>
  <unicode hex="0037"/>
  <outline>
    <contour>
      <point x="48" y="564" type="line"/>
      <point x="474" y="564" type="line"/>
      <point x="523" y="601" type="line"/>
      <point x="523" y="690" type="line"/>
      <point x="48" y="690" type="line"/>
    </contour>
    <contour>
      <point x="142" y="0" type="line"/>
      <point x="290" y="0" type="line"/>
      <point x="523" y="601" type="line"/>
      <point x="428" y="690" type="line"/>
    </contour>
  </outline>
</glyph>
<glyph name="eight" format="1">
  <advance width="600.0"/>
  <unicode hex="0038"/>
  <outline>
    <contour>
      <point x="45" y="173" type="curve"/>
      <point x="45" y="63"/>
      <point x="142" y="-11"/>
      <point x="298" y="-11" type="curve"/>
      <point x="465" y="-11"/>
      <point x="555" y="77"/>
      <point x="555" y="183" type="curve"/>
      <point x="555" y="276"/>
      <point x="499" y="359"/>
      <point x="324" y="415" type="curve" smooth="yes"/>
      <point x="226" y="446"/>
      <point x="196" y="478"/>
      <point x="196" y="515" type="curve"/>
      <point x="196" y="555"/>
      <point x="227" y="593"/>
      <point x="298" y="593" type="curve"/>
      <point x="366" y="593"/>
      <point x="403" y="556"/>
      <point x="403" y="510" type="curve"/>
      <point x="403" y="464"/>
      <point x="363" y="420"/>
      <point x="291" y="405" type="curve"/>
      <point x="362" y="366" type="line"/>
      <point x="471" y="381"/>
      <point x="528" y="440"/>
      <point x="528" y="522" type="curve"/>
      <point x="528" y="624"/>
      <point x="435" y="701"/>
      <point x="299" y="701" type="curve"/>
      <point x="161" y="701"/>
      <point x="69" y="616"/>
      <point x="69" y="513" type="curve"/>
      <point x="69" y="420"/>
      <point x="123" y="355"/>
      <point x="290" y="299" type="curve" smooth="yes"/>
      <point x="396" y="263"/>
      <point x="421" y="222"/>
      <point x="421" y="179" type="curve"/>
      <point x="421" y="138"/>
      <point x="380" y="100"/>
      <point x="297" y="100" type="curve"/>
      <point x="219" y="100"/>
      <point x="172" y="136"/>
      <point x="172" y="190" type="curve"/>
      <point x="172" y="242"/>
      <point x="215" y="293"/>
      <point x="288" y="309" type="curve"/>
      <point x="215" y="351" type="line"/>
      <point x="107" y="331"/>
      <point x="45" y="263"/>
    </contour>
  </outline>
</glyph>
<glyph name="nine" format="1">
  <advance width="600.0"/>
  <unicode hex="0039"/>
  <outline>
    <contour>
      <point x="43" y="465" type="curve" smooth="yes"/>
      <point x="43" y="331"/>
      <point x="135" y="244"/>
      <point x="259" y="244" type="curve" smooth="yes"/>
      <point x="329" y="244"/>
      <point x="395" y="279"/>
      <point x="430" y="334" type="curve"/>
      <point x="430" y="420" type="line"/>
      <point x="393" y="383"/>
      <point x="341" y="355"/>
      <point x="288" y="355" type="curve" smooth="yes"/>
      <point x="223" y="355"/>
      <point x="175" y="399"/>
      <point x="175" y="468" type="curve" smooth="yes"/>
      <point x="175" y="535"/>
      <point x="224" y="586"/>
      <point x="287" y="586" type="curve"/>
      <point x="363" y="586"/>
      <point x="423" y="516"/>
      <point x="423" y="370" type="curve"/>
      <point x="423" y="179"/>
      <point x="330" y="104"/>
      <point x="245" y="104" type="curve"/>
      <point x="203" y="104"/>
      <point x="169" y="117"/>
      <point x="134" y="145" type="curve"/>
      <point x="73" y="39" type="line"/>
      <point x="122" y="5"/>
      <point x="181" y="-11"/>
      <point x="243" y="-11" type="curve"/>
      <point x="405" y="-11"/>
      <point x="557" y="117"/>
      <point x="557" y="370" type="curve"/>
      <point x="557" y="580"/>
      <point x="444" y="701"/>
      <point x="292" y="701" type="curve"/>
      <point x="147" y="701"/>
      <point x="43" y="603"/>
    </contour>
  </outline>
</glyph>
<glyph name="colon" format="1">
  <advance width="256"/>
  <unicode hex="003A"/>
  <outline>
    <contour>
      <point x="47" y="69" type="curve" smooth="yes"/>
      <point x="47" y="24"/>
      <point x="81" y="-11"/>
      <point x="128" y="-11" type="curve" smooth="yes"/>
      <point x="176" y="-11"/>
      <point x="209" y="24"/>
      <point x="209" y="69" type="curve" smooth="yes"/>
      <point x="209" y="115"/>
      <point x="176" y="149"/>
      <point x="128" y="149" type="curve" smooth="yes"/>
      <point x="81" y="149"/>
      <point x="47" y="115"/>
    </contour>
    <contour>
      <point x="47" y="452" type="curve" smooth="yes"/>
      <point x="47" y="407"/>
      <point x="81" y="372"/>
      <point x="128" y="372" type="curve" smooth="yes"/>
      <point x="176" y="372"/>
      <point x="209" y="407"/>
      <point x="209" y="452" type="curve" smooth="yes"/>
      <point x="209" y="498"/>
      <point x="176" y="532"/>
      <point x="128" y="532" type="curve" smooth="yes"/>
      <point x="81" y="532"/>
      <point x="47" y="498"/>
    </contour>
  </outline>
</glyph>
<glyph name="greater" format="1">
  <advance width="600.0"/>
  <unicode hex="003E"/>
  <outline>
    <contour>
      <point x="95" y="45" type="line"/>
      <point x="530" y="238" type="line"/>
      <point x="530" y="307" type="line"/>
      <point x="432" y="308" type="line"/>
      <point x="95" y="171" type="line"/>
    </contour>
    <contour>
      <point x="95" y="403" type="line"/>
      <point x="432" y="264" type="line"/>
      <point x="530" y="263" type="line"/>
      <point x="530" y="340" type="line"/>
      <point x="95" y="532" type="line"/>
    </contour>
  </outline>
</glyph>
<glyph name="at" format="1">
  <advance width="996"/>
  <unicode hex="0040"/>
  <outline>
    <contour>
      <point x="53" y="254" type="curve"/>
      <point x="53" y="-12"/>
      <point x="220" y="-196"/>
      <point x="510" y="-196" type="curve"/>
      <point x="606" y="-196"/>
      <point x="689" y="-180"/>
      <point x="753" y="-155" type="curve"/>
      <point x="717" y="-59" type="line"/>
      <point x="658" y="-83"/>
      <point x="585" y="-100"/>
      <point x="510" y="-100" type="curve"/>
      <point x="288" y="-100"/>
      <point x="161" y="43"/>
      <point x="161" y="252" type="curve"/>
      <point x="161" y="460"/>
      <point x="291" y="605"/>
      <point x="513" y="605" type="curve"/>
      <point x="726" y="605"/>
      <point x="836" y="459"/>
      <point x="836" y="266" type="curve"/>
      <point x="836" y="132"/>
      <point x="798" y="85"/>
      <point x="753" y="85" type="curve"/>
      <point x="722" y="85"/>
      <point x="703" y="107"/>
      <point x="703" y="152" type="curve"/>
      <point x="703" y="371" type="line" smooth="yes"/>
      <point x="703" y="399"/>
      <point x="705" y="419"/>
      <point x="710" y="448" type="curve"/>
      <point x="718" y="495" type="line"/>
      <point x="596" y="495" type="line"/>
      <point x="576" y="395" type="line"/>
      <point x="576" y="152" type="line"/>
      <point x="580" y="108" type="line"/>
      <point x="600" y="26"/>
      <point x="658" y="-11"/>
      <point x="738" y="-11" type="curve"/>
      <point x="865" y="-11"/>
      <point x="943" y="84"/>
      <point x="943" y="266" type="curve"/>
      <point x="943" y="530"/>
      <point x="778" y="701"/>
      <point x="510" y="701" type="curve"/>
      <point x="242" y="701"/>
      <point x="53" y="520"/>
    </contour>
    <contour>
      <point x="254" y="257" type="curve" smooth="yes"/>
      <point x="254" y="103"/>
      <point x="336" y="9"/>
      <point x="433" y="9" type="curve" smooth="yes"/>
      <point x="497" y="9"/>
      <point x="552" y="48"/>
      <point x="591" y="104" type="curve"/>
      <point x="591" y="189" type="line"/>
      <point x="558" y="149"/>
      <point x="514" y="124"/>
      <point x="473" y="124" type="curve" smooth="yes"/>
      <point x="420" y="124"/>
      <point x="382" y="171"/>
      <point x="382" y="263" type="curve" smooth="yes"/>
      <point x="382" y="350"/>
      <point x="424" y="405"/>
      <point x="486" y="405" type="curve" smooth="yes"/>
      <point x="536" y="405"/>
      <point x="576" y="362"/>
      <point x="576" y="266" type="curve"/>
      <point x="623" y="273" type="line"/>
      <point x="623" y="430"/>
      <point x="547" y="506"/>
      <point x="453" y="506" type="curve" smooth="yes"/>
      <point x="338" y="506"/>
      <point x="254" y="416"/>
    </contour>
  </outline>
</glyph>
<glyph name="A" format="1">
  <advance width="656.0"/>
  <unicode hex="0041"/>
  <outline>
    <contour>
      <point x="8" y="0" type="line"/>
      <point x="148" y="0" type="line"/>
      <point x="343" y="560" type="line"/>
      <point x="335" y="690" type="line"/>
      <point x="265" y="690" type="line"/>
    </contour>
    <contour>
      <point x="161" y="159" type="line"/>
      <point x="499" y="159" type="line"/>
      <point x="499" y="270" type="line"/>
      <point x="161" y="270" type="line"/>
    </contour>
    <contour>
      <point x="309" y="560" type="line"/>
      <point x="504" y="0" type="line"/>
      <point x="648" y="0" type="line"/>
      <point x="391" y="690" type="line"/>
      <point x="313" y="690" type="line"/>
    </contour>
    <contour>
      <point x="327" y="690" type="move" name="top"/>
    </contour>
    <contour>
      <point x="504" y="0" type="move" name="ogonek"/>
    </contour>
    <contour>
      <point x="328" y="0" type="move" name="bottom"/>
    </contour>
  </outline>
</glyph>
<glyph name="D" format="1">
  <advance width="715"/>
  <unicode hex="0044"/>
  <outline>
    <contour>
      <point x="91" y="0" type="line"/>
      <point x="225" y="0" type="line"/>
      <point x="225" y="690" type="line"/>
      <point x="91" y="690" type="line"/>
    </contour>
    <contour>
      <point x="155" y="0" type="line"/>
      <point x="337" y="0" type="line" smooth="yes"/>
      <point x="520" y="0"/>
      <point x="664" y="126"/>
      <point x="664" y="345" type="curve" smooth="yes"/>
      <point x="664" y="564"/>
      <point x="520" y="690"/>
      <point x="337" y="690" type="curve" smooth="yes"/>
      <point x="155" y="690" type="line"/>
      <point x="155" y="572" type="line"/>
      <point x="326" y="572" type="line" smooth="yes"/>
      <point x="444" y="572"/>
      <point x="526" y="494"/>
      <point x="526" y="345" type="curve" smooth="yes"/>
      <point x="526" y="196"/>
      <point x="444" y="118"/>
      <point x="326" y="118" type="curve" smooth="yes"/>
      <point x="155" y="118" type="line"/>
    </contour>
    <contour>
      <point x="316" y="690" type="move" name="top"/>
    </contour>
  </outline>
</glyph>
<glyph name="H" format="1">
  <advance width="747"/>
  <unicode hex="0048"/>
  <outline>
    <contour>
      <point x="91" y="0" type="line"/>
      <point x="225" y="0" type="line"/>
      <point x="225" y="690" type="line"/>
      <point x="91" y="690" type="line"/>
    </contour>
    <contour>
      <point x="155" y="290" type="line"/>
      <point x="591" y="290" type="line"/>
      <point x="591" y="408" type="line"/>
      <point x="155" y="408" type="line"/>
    </contour>
    <contour>
      <point x="521" y="0" type="line"/>
      <point x="656" y="0" type="line"/>
      <point x="656" y="690" type="line"/>
      <point x="521" y="690" type="line"/>
    </contour>
    <contour>
      <point x="373" y="690" type="move" name="top"/>
    </contour>
  </outline>
</glyph>
<glyph name="I" format="1">
  <advance width="464"/>
  <unicode hex="0049"/>
  <outline>
    <contour>
      <point x="71" y="0" type="line"/>
      <point x="393" y="0" type="line"/>
      <point x="393" y="104" type="line"/>
      <point x="71" y="104" type="line"/>
    </contour>
    <contour>
      <point x="71" y="586" type="line"/>
      <point x="393" y="586" type="line"/>
      <point x="393" y="690" type="line"/>
      <point x="71" y="690" type="line"/>
    </contour>
    <contour>
      <point x="165" y="0" type="line"/>
      <point x="299" y="0" type="line"/>
      <point x="299" y="690" type="line"/>
      <point x="165" y="690" type="line"/>
    </contour>
    <contour>
      <point x="232" y="690" type="move" name="top"/>
    </contour>
    <contour>
      <point x="171" y="0" type="move" name="ogonek"/>
    </contour>
    <contour>
      <point x="232" y="0" type="move" name="bottom"/>
    </contour>
  </outline>
</glyph>
<glyph name="M" format="1">
  <advance width="847"/>
  <unicode hex="004D"/>
  <outline>
    <contour>
      <point x="91" y="0" type="line"/>
      <point x="221" y="0" type="line"/>
      <point x="221" y="690" type="line"/>
      <point x="91" y="690" type="line"/>
    </contour>
    <contour>
      <point x="151" y="690" type="line"/>
      <point x="380" y="147" type="line"/>
      <point x="433" y="147" type="line"/>
      <point x="435" y="301" type="line"/>
      <point x="279" y="690" type="line"/>
    </contour>
    <contour>
      <point x="414" y="147" type="line"/>
      <point x="467" y="147" type="line"/>
      <point x="695" y="690" type="line"/>
      <point x="568" y="690" type="line"/>
      <point x="411" y="301" type="line"/>
    </contour>
    <contour>
      <point x="626" y="0" type="line"/>
      <point x="756" y="0" type="line"/>
      <point x="756" y="690" type="line"/>
      <point x="626" y="690" type="line"/>
    </contour>
  </outline>
</glyph>
<glyph name="Q" format="1">
  <advance width="737"/>
  <unicode hex="0051"/>
  <outline>
    <contour>
      <point x="417" y="10" type="line"/>
      <point x="448" y="-112"/>
      <point x="529" y="-168"/>
      <point x="670" y="-169" type="curve"/>
      <point x="670" y="-42" type="line"/>
      <point x="592" y="-42"/>
      <point x="545" y="-18"/>
      <point x="522" y="50" type="curve"/>
    </contour>
    <contour>
      <point x="51" y="345" type="curve" smooth="yes"/>
      <point x="51" y="118"/>
      <point x="194" y="-11"/>
      <point x="368" y="-11" type="curve" smooth="yes"/>
      <point x="543" y="-11"/>
      <point x="686" y="118"/>
      <point x="686" y="345" type="curve" smooth="yes"/>
      <point x="686" y="572"/>
      <point x="543" y="701"/>
      <point x="368" y="701" type="curve" smooth="yes"/>
      <point x="194" y="701"/>
      <point x="51" y="572"/>
    </contour>
    <contour>
      <point x="188" y="345" type="curve" smooth="yes"/>
      <point x="188" y="502"/>
      <point x="265" y="580"/>
      <point x="368" y="580" type="curve" smooth="yes"/>
      <point x="472" y="580"/>
      <point x="548" y="502"/>
      <point x="548" y="345" type="curve" smooth="yes"/>
      <point x="548" y="188"/>
      <point x="472" y="110"/>
      <point x="368" y="110" type="curve" smooth="yes"/>
      <point x="265" y="110"/>
      <point x="188" y="188"/>
    </contour>
  </outline>
</glyph>
<glyph name="R" format="1">
  <advance width="655"/>
  <unicode hex="0052"/>
  <outline>
    <contour>
      <point x="91" y="0" type="line"/>
      <point x="225" y="0" type="line"/>
      <point x="225" y="690" type="line"/>
      <point x="91" y="690" type="line"/>
    </contour>
    <contour>
      <point x="155" y="248" type="line"/>
      <point x="341" y="248" type="line" smooth="yes"/>
      <point x="482" y="248"/>
      <point x="593" y="327"/>
      <point x="593" y="466" type="curve" smooth="yes"/>
      <point x="593" y="608"/>
      <point x="482" y="690"/>
      <point x="341" y="690" type="curve" smooth="yes"/>
      <point x="155" y="690" type="line"/>
      <point x="155" y="572" type="line"/>
      <point x="330" y="572" type="line" smooth="yes"/>
      <point x="404" y="572"/>
      <point x="456" y="536"/>
      <point x="456" y="466" type="curve" smooth="yes"/>
      <point x="456" y="396"/>
      <point x="403" y="359"/>
      <point x="330" y="359" type="curve" smooth="yes"/>
      <point x="155" y="359" type="line"/>
    </contour>
    <contour>
      <point x="298" y="290" type="line"/>
      <point x="461" y="0" type="line"/>
      <point x="612" y="0" type="line"/>
      <point x="435" y="290" type="line"/>
    </contour>
    <contour>
      <point x="320" y="690" type="move" name="top"/>
    </contour>
    <contour>
      <point x="336" y="0" type="move" name="bottom"/>
    </contour>
  </outline>
</glyph>
<glyph name="T" format="1">
  <advance width="582.0"/>
  <unicode hex="0054"/>
  <outline>
    <contour>
      <point x="27" y="572" type="line"/>
      <point x="555" y="572" type="line"/>
      <point x="555" y="690" type="line"/>
      <point x="27" y="690" type="line"/>
    </contour>
    <contour>
      <point x="224" y="0" type="line"/>
      <point x="358" y="0" type="line"/>
      <point x="358" y="690" type="line"/>
      <point x="224" y="690" type="line"/>
    </contour>
    <contour>
      <point x="291" y="690" type="move" name="top"/>
    </contour>
    <contour>
      <point x="291" y="0" type="move" name="bottom"/>
    </contour>
  </outline>
</glyph>
<glyph name="W" format="1">
  <advance width="958.0"/>
  <unicode hex="0057"/>
  <outline>
    <contour>
      <point x="8" y="690" type="line"/>
      <point x="218" y="0" type="line"/>
      <point x="297" y="0" type="line"/>
      <point x="299" y="139" type="line"/>
      <point x="150" y="690" type="line"/>
    </contour>
    <contour>
      <point x="265" y="139" type="line"/>
      <point x="269" y="0" type="line"/>
      <point x="341" y="0" type="line"/>
      <point x="505" y="554" type="line"/>
      <point x="505" y="690" type="line"/>
      <point x="425" y="690" type="line"/>
    </contour>
    <contour>
      <point x="453" y="554" type="line"/>
      <point x="616" y="0" type="line"/>
      <point x="695" y="0" type="line"/>
      <point x="696" y="139" type="line"/>
      <point x="537" y="690" type="line"/>
      <point x="453" y="690" type="line"/>
    </contour>
    <contour>
      <point x="664" y="139" type="line"/>
      <point x="667" y="0" type="line"/>
      <point x="740" y="0" type="line"/>
      <point x="950" y="690" type="line"/>
      <point x="812" y="690" type="line"/>
    </contour>
    <contour>
      <point x="479" y="690" type="move" name="top"/>
    </contour>
  </outline>
</glyph>
<glyph name="X" format="1">
  <advance width="632.0"/>
  <unicode hex="0058"/>
  <outline>
    <contour>
      <point x="15" y="0" type="line"/>
      <point x="166" y="0" type="line"/>
      <point x="328" y="268" type="line"/>
      <point x="373" y="326" type="line"/>
      <point x="607" y="690" type="line"/>
      <point x="456" y="690" type="line"/>
      <point x="305" y="438" type="line"/>
      <point x="259" y="380" type="line"/>
    </contour>
    <contour>
      <point x="25" y="690" type="line"/>
      <point x="278" y="293" type="line"/>
      <point x="460" y="0" type="line"/>
      <point x="617" y="0" type="line"/>
      <point x="355" y="410" type="line"/>
      <point x="182" y="690" type="line"/>
    </contour>
  </outline>
</glyph>
<glyph name="Z" format="1">
  <advance width="633"/>
  <unicode hex="005A"/>
  <outline>
    <contour>
      <point x="57" y="89" type="line"/>
      <point x="153" y="0" type="line"/>
      <point x="566" y="601" type="line"/>
      <point x="470" y="690" type="line"/>
    </contour>
    <contour>
      <point x="57" y="0" type="line"/>
      <point x="576" y="0" type="line"/>
      <point x="576" y="118" type="line"/>
      <point x="111" y="118" type="line"/>
      <point x="57" y="89" type="line"/>
    </contour>
    <contour>
      <point x="67" y="572" type="line"/>
      <point x="512" y="572" type="line"/>
      <point x="566" y="601" type="line"/>
      <point x="566" y="690" type="line"/>
      <point x="67" y="690" type="line"/>
    </contour>
    <contour>
      <point x="317" y="690" type="move" name="top"/>
    </contour>
  </outline>
</glyph>
<glyph name="backslash" format="1">
  <advance width="371"/>
  <unicode hex="005C"/>
  <outline>
    <contour>
      <point x="0" y="720" type="line"/>
      <point x="248" y="-30" type="line"/>
      <point x="371" y="-30" type="line"/>
      <point x="123" y="720" type="line"/>
    </contour>
  </outline>
</glyph>
<glyph name="bracketright" format="1">
  <advance width="320.0"/>
  <unicode hex="005D"/>
  <outline>
    <contour>
      <point x="-40" y="-275" type="line"/>
      <point x="229" y="-275" type="line"/>
      <point x="229" y="-175" type="line"/>
      <point x="-40" y="-175" type="line"/>
    </contour>
    <contour>
      <point x="-40" y="710" type="line"/>
      <point x="229" y="710" type="line"/>
      <point x="229" y="810" type="line"/>
      <point x="-40" y="810" type="line"/>
    </contour>
    <contour>
      <point x="112" y="-275" type="line"/>
      <point x="229" y="-275" type="line"/>
      <point x="229" y="810" type="line"/>
      <point x="112" y="810" type="line"/>
    </contour>
  </outline>
</glyph>
<glyph name="asciicircum" format="1">
  <advance width="600.0"/>
  <unicode hex="005E"/>
  <outline>
    <contour>
      <point x="63" y="255" type="line"/>
      <point x="189" y="255" type="line"/>
      <point x="326" y="591" type="line"/>
      <point x="325" y="690" type="line"/>
      <point x="256" y="690" type="line"/>
    </contour>
    <contour>
      <point x="281" y="690" type="line"/>
      <point x="282" y="591" type="line"/>
      <point x="420" y="255" type="line"/>
      <point x="550" y="255" type="line"/>
      <point x="358" y="690" type="line"/>
    </contour>
  </outline>
</glyph>
<glyph name="e" format="1">
  <advance width="560"/>
  <unicode hex="0065"/>
  <outline>
    <contour>
      <point x="45" y="252" type="curve" smooth="yes"/>
      <point x="45" y="87"/>
      <point x="149" y="-11"/>
      <point x="313" y="-11" type="curve" smooth="yes"/>
      <point x="380" y="-11"/>
      <point x="438" y="7"/>
      <point x="485" y="34" type="curve"/>
      <point x="444" y="130" type="line"/>
      <point x="411" y="110"/>
      <point x="367" y="96"/>
      <point x="324" y="96" type="curve" smooth="yes"/>
      <point x="234" y="96"/>
      <point x="170" y="147"/>
      <point x="170" y="258" type="curve" smooth="yes"/>
      <point x="170" y="376"/>
      <point x="220" y="430"/>
      <point x="289" y="430" type="curve" smooth="yes"/>
      <point x="351" y="430"/>
      <point x="394" y="383"/>
      <point x="394" y="270" type="curve"/>
      <point x="420" y="309" type="line"/>
      <point x="141" y="309" type="line"/>
      <point x="141" y="223" type="line"/>
      <point x="513" y="223" type="line"/>
      <point x="514" y="235"/>
      <point x="517" y="253"/>
      <point x="517" y="271" type="curve" smooth="yes"/>
      <point x="517" y="438"/>
      <point x="424" y="532"/>
      <point x="291" y="532" type="curve" smooth="yes"/>
      <point x="149" y="532"/>
      <point x="45" y="427"/>
    </contour>
    <contour>
      <point x="291" y="521" type="move" name="top"/>
    </contour>
    <contour>
      <point x="365" y="0" type="move" name="ogonek"/>
    </contour>
    <contour>
      <point x="291" y="0" type="move" name="bottom"/>
    </contour>
  </outline>
</glyph>
<glyph name="f" format="1">
  <advance width="379.0"/>
  <unicode hex="0066"/>
  <outline>
    <contour>
      <point x="17" y="420" type="line"/>
      <point x="376" y="420" type="line"/>
      <point x="376" y="521" type="line"/>
      <point x="17" y="521" type="line"/>
    </contour>
    <contour>
      <point x="107" y="0" type="line"/>
      <point x="234" y="0" type="line"/>
      <point x="234" y="537" type="line" smooth="yes"/>
      <point x="234" y="594"/>
      <point x="257" y="626"/>
      <point x="310" y="626" type="curve" smooth="yes"/>
      <point x="332" y="626"/>
      <point x="355" y="622"/>
      <point x="379" y="613" type="curve"/>
      <point x="396" y="711" type="line"/>
      <point x="363" y="723"/>
      <point x="323" y="731"/>
      <point x="288" y="731" type="curve" smooth="yes"/>
      <point x="179" y="731"/>
      <point x="107" y="659"/>
      <point x="107" y="537" type="curve" smooth="yes"/>
    </contour>
  </outline>
</glyph>
<glyph name="h" format="1">
  <advance width="622.0"/>
  <unicode hex="0068"/>
  <outline>
    <contour>
      <point x="81" y="0" type="line"/>
      <point x="208" y="0" type="line"/>
      <point x="208" y="735" type="line"/>
      <point x="81" y="715" type="line"/>
    </contour>
    <contour>
      <point x="193" y="352" type="line"/>
      <point x="229" y="393"/>
      <point x="276" y="415"/>
      <point x="321" y="415" type="curve"/>
      <point x="378" y="415"/>
      <point x="419" y="380"/>
      <point x="419" y="303" type="curve" smooth="yes"/>
      <point x="419" y="0" type="line"/>
      <point x="546" y="0" type="line"/>
      <point x="546" y="322" type="line" smooth="yes"/>
      <point x="546" y="463"/>
      <point x="461" y="532"/>
      <point x="364" y="532" type="curve"/>
      <point x="294" y="532"/>
      <point x="235" y="493"/>
      <point x="193" y="437" type="curve"/>
    </contour>
    <contour>
      <point x="144" y="720" type="move" name="top"/>
    </contour>
  </outline>
</glyph>
<glyph name="j" format="1">
  <advance width="289"/>
  <unicode hex="006A"/>
  <outline>
    <contour>
      <point x="-57" y="-181" type="line"/>
      <point x="-32" y="-190"/>
      <point x="2" y="-196"/>
      <point x="31" y="-196" type="curve"/>
      <point x="136" y="-196"/>
      <point x="208" y="-131"/>
      <point x="208" y="-9" type="curve" smooth="yes"/>
      <point x="208" y="521" type="line"/>
      <point x="81" y="521" type="line"/>
      <point x="81" y="-2" type="line" smooth="yes"/>
      <point x="81" y="-63"/>
      <point x="55" y="-85"/>
      <point x="11" y="-85" type="curve"/>
      <point x="-7" y="-85"/>
      <point x="-22" y="-82"/>
      <point x="-41" y="-76" type="curve"/>
    </contour>
    <contour>
      <point x="68" y="672" type="curve" smooth="yes"/>
      <point x="68" y="630"/>
      <point x="100" y="596"/>
      <point x="144" y="596" type="curve" smooth="yes"/>
      <point x="190" y="596"/>
      <point x="220" y="630"/>
      <point x="220" y="672" type="curve" smooth="yes"/>
      <point x="220" y="715"/>
      <point x="190" y="749"/>
      <point x="144" y="749" type="curve" smooth="yes"/>
      <point x="100" y="749"/>
      <point x="68" y="715"/>
    </contour>
  </outline>
</glyph>
<glyph name="k" format="1">
  <advance width="558"/>
  <unicode hex="006B"/>
  <outline>
    <contour>
      <point x="81" y="0" type="line"/>
      <point x="208" y="0" type="line"/>
      <point x="208" y="735" type="line"/>
      <point x="81" y="715" type="line"/>
    </contour>
    <contour>
      <point x="172" y="127" type="line"/>
      <point x="538" y="521" type="line"/>
      <point x="380" y="521" type="line"/>
      <point x="172" y="277" type="line"/>
    </contour>
    <contour>
      <point x="240" y="267" type="line"/>
      <point x="405" y="0" type="line"/>
      <point x="552" y="0" type="line"/>
      <point x="322" y="346" type="line"/>
    </contour>
    <contour>
      <point x="300" y="0" type="move" name="bottom"/>
    </contour>
  </outline>
</glyph>
<glyph name="n" format="1">
  <advance width="622.0"/>
  <unicode hex="006E"/>
  <outline>
    <contour>
      <point x="66" y="521" type="line"/>
      <point x="74" y="474" type="line" smooth="yes"/>
      <point x="79" y="445"/>
      <point x="81" y="425"/>
      <point x="81" y="397" type="curve" smooth="yes"/>
      <point x="81" y="0" type="line"/>
      <point x="208" y="0" type="line"/>
      <point x="208" y="421" type="line"/>
      <point x="188" y="521" type="line"/>
    </contour>
    <contour>
      <point x="193" y="349" type="line"/>
      <point x="229" y="391"/>
      <point x="276" y="415"/>
      <point x="321" y="415" type="curve"/>
      <point x="378" y="415"/>
      <point x="419" y="380"/>
      <point x="419" y="303" type="curve" smooth="yes"/>
      <point x="419" y="0" type="line"/>
      <point x="546" y="0" type="line"/>
      <point x="546" y="322" type="line" smooth="yes"/>
      <point x="546" y="463"/>
      <point x="461" y="532"/>
      <point x="364" y="532" type="curve"/>
      <point x="294" y="532"/>
      <point x="235" y="493"/>
      <point x="193" y="437" type="curve"/>
    </contour>
    <contour>
      <point x="321" y="521" type="move" name="top"/>
    </contour>
    <contour>
      <point x="314" y="0" type="move" name="bottom"/>
    </contour>
  </outline>
</glyph>
<glyph name="p" format="1">
  <advance width="600"/>
  <unicode hex="0070"/>
  <outline>
    <contour>
      <point x="66" y="521" type="line"/>
      <point x="74" y="474" type="line" smooth="yes"/>
      <point x="79" y="445"/>
      <point x="81" y="425"/>
      <point x="81" y="397" type="curve" smooth="yes"/>
      <point x="81" y="-200" type="line"/>
      <point x="208" y="-180" type="line"/>
      <point x="208" y="421" type="line"/>
      <point x="188" y="521" type="line"/>
    </contour>
    <contour>
      <point x="161" y="222" type="line"/>
      <point x="161" y="70"/>
      <point x="241" y="-11"/>
      <point x="338" y="-11" type="curve"/>
      <point x="465" y="-11"/>
      <point x="556" y="87"/>
      <point x="556" y="261" type="curve" smooth="yes"/>
      <point x="556" y="428"/>
      <point x="466" y="532"/>
      <point x="361" y="532" type="curve" smooth="yes"/>
      <point x="292" y="532"/>
      <point x="234" y="493"/>
      <point x="193" y="437" type="curve"/>
      <point x="193" y="349" type="line"/>
      <point x="229" y="391"/>
      <point x="275" y="417"/>
      <point x="321" y="417" type="curve" smooth="yes"/>
      <point x="383" y="417"/>
      <point x="428" y="362"/>
      <point x="428" y="255" type="curve" smooth="yes"/>
      <point x="428" y="154"/>
      <point x="379" y="90"/>
      <point x="308" y="90" type="curve"/>
      <point x="252" y="90"/>
      <point x="208" y="133"/>
      <point x="208" y="229" type="curve"/>
    </contour>
  </outline>
</glyph>
<glyph name="r" format="1">
  <advance width="393"/>
  <unicode hex="0072"/>
  <outline>
    <contour>
      <point x="66" y="521" type="line"/>
      <point x="74" y="474" type="line" smooth="yes"/>
      <point x="79" y="445"/>
      <point x="81" y="425"/>
      <point x="81" y="397" type="curve" smooth="yes"/>
      <point x="81" y="0" type="line"/>
      <point x="208" y="0" type="line"/>
      <point x="208" y="418" type="line"/>
      <point x="188" y="521" type="line"/>
    </contour>
    <contour>
      <point x="193" y="334" type="line"/>
      <point x="239" y="382"/>
      <point x="290" y="402"/>
      <point x="370" y="404" type="curve"/>
      <point x="370" y="532" type="line"/>
      <point x="296" y="532"/>
      <point x="232" y="489"/>
      <point x="193" y="419" type="curve"/>
    </contour>
    <contour>
      <point x="235" y="521" type="move" name="top"/>
    </contour>
    <contour>
      <point x="144" y="0" type="move" name="bottom"/>
    </contour>
  </outline>
</glyph>
<glyph name="t" format="1">
  <advance width="417"/>
  <unicode hex="0074"/>
  <outline>
    <contour>
      <point x="17" y="420" type="line"/>
      <point x="378" y="420" type="line"/>
      <point x="378" y="521" type="line"/>
      <point x="17" y="521" type="line"/>
    </contour>
    <contour>
      <point x="107" y="170" type="line" smooth="yes"/>
      <point x="107" y="50"/>
      <point x="177" y="-11"/>
      <point x="280" y="-11" type="curve"/>
      <point x="317" y="-11"/>
      <point x="356" y="-3"/>
      <point x="389" y="9" type="curve"/>
      <point x="373" y="118" type="line"/>
      <point x="348" y="109"/>
      <point x="325" y="104"/>
      <point x="305" y="104" type="curve"/>
      <point x="257" y="104"/>
      <point x="234" y="128"/>
      <point x="234" y="183" type="curve" smooth="yes"/>
      <point x="234" y="658" type="line"/>
      <point x="107" y="638" type="line"/>
    </contour>
    <contour>
      <point x="417" y="720" type="move" name="caron.alt"/>
    </contour>
    <contour>
      <point x="236" y="0" type="move" name="bottom"/>
    </contour>
  </outline>
</glyph>
<glyph name="u" format="1">
  <advance width="617"/>
  <unicode hex="0075"/>
  <outline>
    <contour>
      <point x="76" y="199" type="line" smooth="yes"/>
      <point x="76" y="58"/>
      <point x="159" y="-11"/>
      <point x="255" y="-11" type="curve" smooth="yes"/>
      <point x="325" y="-11"/>
      <point x="382" y="28"/>
      <point x="424" y="84" type="curve"/>
      <point x="424" y="172" type="line"/>
      <point x="388" y="130"/>
      <point x="343" y="106"/>
      <point x="298" y="106" type="curve" smooth="yes"/>
      <point x="241" y="106"/>
      <point x="203" y="141"/>
      <point x="203" y="218" type="curve" smooth="yes"/>
      <point x="203" y="521" type="line"/>
      <point x="76" y="521" type="line"/>
    </contour>
    <contour>
      <point x="429" y="0" type="line"/>
      <point x="551" y="0" type="line"/>
      <point x="543" y="47" type="line" smooth="yes"/>
      <point x="538" y="76"/>
      <point x="536" y="96"/>
      <point x="536" y="124" type="curve" smooth="yes"/>
      <point x="536" y="521" type="line"/>
      <point x="409" y="521" type="line"/>
      <point x="409" y="100" type="line"/>
    </contour>
    <contour>
      <point x="306" y="521" type="move" name="top"/>
    </contour>
    <contour>
      <point x="429" y="0" type="move" name="ogonek"/>
    </contour>
    <contour>
      <point x="306" y="0" type="move" name="bottom"/>
    </contour>
  </outline>
</glyph>
<glyph name="w" format="1">
  <advance width="792"/>
  <unicode hex="0077"/>
  <outline>
    <contour>
      <point x="16" y="521" type="line"/>
      <point x="183" y="0" type="line"/>
      <point x="266" y="0" type="line"/>
      <point x="265" y="102" type="line"/>
      <point x="151" y="521" type="line"/>
    </contour>
    <contour>
      <point x="221" y="102" type="line"/>
      <point x="222" y="0" type="line"/>
      <point x="291" y="0" type="line"/>
      <point x="418" y="381" type="line"/>
      <point x="418" y="521" type="line"/>
      <point x="346" y="521" type="line"/>
    </contour>
    <contour>
      <point x="374" y="381" type="line"/>
      <point x="500" y="0" type="line"/>
      <point x="577" y="0" type="line"/>
      <point x="576" y="102" type="line"/>
      <point x="450" y="521" type="line"/>
      <point x="374" y="521" type="line"/>
    </contour>
    <contour>
      <point x="532" y="102" type="line"/>
      <point x="533" y="0" type="line"/>
      <point x="608" y="0" type="line"/>
      <point x="776" y="521" type="line"/>
      <point x="644" y="521" type="line"/>
    </contour>
    <contour>
      <point x="396" y="521" type="move" name="top"/>
    </contour>
  </outline>
</glyph>
<glyph name="x" format="1">
  <advance width="532.0"/>
  <unicode hex="0078"/>
  <outline>
    <contour>
      <point x="15" y="0" type="line"/>
      <point x="155" y="0" type="line"/>
      <point x="274" y="194" type="line"/>
      <point x="322" y="251" type="line"/>
      <point x="507" y="521" type="line"/>
      <point x="367" y="521" type="line"/>
      <point x="258" y="343" type="line"/>
      <point x="209" y="285" type="line"/>
    </contour>
    <contour>
      <point x="25" y="521" type="line"/>
      <point x="229" y="220" type="line"/>
      <point x="231" y="217" type="line"/>
      <point x="369" y="0" type="line"/>
      <point x="517" y="0" type="line"/>
      <point x="305" y="313" type="line"/>
      <point x="303" y="316" type="line"/>
      <point x="173" y="521" type="line"/>
    </contour>
  </outline>
</glyph>
<glyph name="z" format="1">
  <advance width="502"/>
  <unicode hex="007A"/>
  <outline>
    <contour>
      <point x="41" y="75" type="line"/>
      <point x="132" y="0" type="line"/>
      <point x="451" y="446" type="line"/>
      <point x="360" y="521" type="line"/>
    </contour>
    <contour>
      <point x="41" y="0" type="line"/>
      <point x="461" y="0" type="line"/>
      <point x="461" y="101" type="line"/>
      <point x="95" y="101" type="line"/>
      <point x="41" y="75" type="line"/>
    </contour>
    <contour>
      <point x="51" y="420" type="line"/>
      <point x="397" y="420" type="line"/>
      <point x="451" y="446" type="line"/>
      <point x="451" y="521" type="line"/>
      <point x="51" y="521" type="line"/>
    </contour>
    <contour>
      <point x="251" y="521" type="move" name="top"/>
    </contour>
  </outline>
</glyph>
<glyph name="braceleft" format="1">
  <advance width="357.0"/>
  <unicode hex="007B"/>
  <outline>
    <contour>
      <point x="64" y="227" type="line"/>
      <point x="160" y="206"/>
      <point x="188" y="176"/>
      <point x="188" y="134" type="curve" smooth="yes"/>
      <point x="188" y="59"/>
      <point x="107" y="10"/>
      <point x="107" y="-81" type="curve" smooth="yes"/>
      <point x="107" y="-172"/>
      <point x="176" y="-245"/>
      <point x="316" y="-268" type="curve"/>
      <point x="336" y="-195" type="line"/>
      <point x="246" y="-166"/>
      <point x="224" y="-127"/>
      <point x="224" y="-82" type="curve" smooth="yes"/>
      <point x="224" y="-8"/>
      <point x="293" y="47"/>
      <point x="293" y="135" type="curve" smooth="yes"/>
      <point x="293" y="199"/>
      <point x="251" y="248"/>
      <point x="167" y="268" type="curve"/>
      <point x="251" y="288"/>
      <point x="293" y="338"/>
      <point x="293" y="402" type="curve" smooth="yes"/>
      <point x="293" y="490"/>
      <point x="224" y="543"/>
      <point x="224" y="617" type="curve" smooth="yes"/>
      <point x="224" y="662"/>
      <point x="246" y="701"/>
      <point x="336" y="730" type="curve"/>
      <point x="316" y="803" type="line"/>
      <point x="176" y="780"/>
      <point x="107" y="707"/>
      <point x="107" y="616" type="curve" smooth="yes"/>
      <point x="107" y="525"/>
      <point x="188" y="477"/>
      <point x="188" y="402" type="curve" smooth="yes"/>
      <point x="188" y="360"/>
      <point x="160" y="330"/>
      <point x="64" y="309" type="curve"/>
    </contour>
  </outline>
</glyph>
<glyph name="bar" format="1">
  <advance width="299"/>
  <unicode hex="007C"/>
  <outline>
    <contour>
      <point x="91" y="-215" type="line"/>
      <point x="208" y="-215" type="line"/>
      <point x="208" y="720" type="line"/>
      <point x="91" y="720" type="line"/>
    </contour>
  </outline>
</glyph>
<glyph name="braceright" format="1">
  <advance width="357.0"/>
  <unicode hex="007D"/>
  <outline>
    <contour>
      <point x="21" y="-195" type="curve"/>
      <point x="41" y="-268" type="line"/>
      <point x="181" y="-245"/>
      <point x="250" y="-172"/>
      <point x="250" y="-81" type="curve" smooth="yes"/>
      <point x="250" y="10"/>
      <point x="169" y="59"/>
      <point x="169" y="134" type="curve" smooth="yes"/>
      <point x="169" y="176"/>
      <point x="197" y="206"/>
      <point x="293" y="227" type="curve"/>
      <point x="293" y="309" type="line"/>
      <point x="197" y="329"/>
      <point x="169" y="359"/>
      <point x="169" y="402" type="curve" smooth="yes"/>
      <point x="169" y="477"/>
      <point x="250" y="525"/>
      <point x="250" y="616" type="curve" smooth="yes"/>
      <point x="250" y="707"/>
      <point x="181" y="780"/>
      <point x="41" y="803" type="curve"/>
      <point x="21" y="730" type="line"/>
      <point x="111" y="701"/>
      <point x="133" y="662"/>
      <point x="133" y="617" type="curve" smooth="yes"/>
      <point x="133" y="543"/>
      <point x="64" y="490"/>
      <point x="64" y="402" type="curve" smooth="yes"/>
      <point x="64" y="338"/>
      <point x="106" y="288"/>
      <point x="190" y="268" type="curve"/>
      <point x="106" y="248"/>
      <point x="64" y="198"/>
      <point x="64" y="134" type="curve" smooth="yes"/>
      <point x="64" y="46"/>
      <point x="133" y="-8"/>
      <point x="133" y="-82" type="curve" smooth="yes"/>
      <point x="133" y="-127"/>
      <point x="111" y="-166"/>
    </contour>
  </outline>
</glyph>
<glyph name="asciitilde" format="1">
  <advance width="600.0"/>
  <unicode hex="007E"/>
  <outline>
    <contour>
      <point x="79" y="294" type="curve"/>
      <point x="146" y="294" type="line"/>
      <point x="157" y="353"/>
      <point x="177" y="372"/>
      <point x="204" y="372" type="curve" smooth="yes"/>
      <point x="260" y="372"/>
      <point x="301" y="289"/>
      <point x="387" y="289" type="curve"/>
      <point x="461" y="289"/>
      <point x="513" y="347"/>
      <point x="521" y="464" type="curve"/>
      <point x="454" y="464" type="line"/>
      <point x="444" y="406"/>
      <point x="423" y="387"/>
      <point x="396" y="387" type="curve" smooth="yes"/>
      <point x="341" y="387"/>
      <point x="299" y="469"/>
      <point x="213" y="469" type="curve"/>
      <point x="138" y="469"/>
      <point x="86" y="412"/>
    </contour>
  </outline>
</glyph>
<glyph name="exclamdown" format="1">
  <advance width="344"/>
  <unicode hex="00A1"/>
  <outline>
    <contour>
      <point x="102" y="-185" type="line"/>
      <point x="242" y="-185" type="line"/>
      <point x="242" y="0" type="line"/>
      <point x="220" y="281" type="line"/>
      <point x="124" y="281" type="line"/>
      <point x="102" y="0" type="line"/>
    </contour>
    <contour>
      <point x="91" y="452" type="curve" smooth="yes"/>
      <point x="91" y="406"/>
      <point x="124" y="372"/>
      <point x="172" y="372" type="curve" smooth="yes"/>
      <point x="219" y="372"/>
      <point x="253" y="406"/>
      <point x="253" y="452" type="curve" smooth="yes"/>
      <point x="253" y="497"/>
      <point x="219" y="532"/>
      <point x="172" y="532" type="curve" smooth="yes"/>
      <point x="124" y="532"/>
      <point x="91" y="497"/>
    </contour>
  </outline>
</glyph>
<glyph name="cent" format="1">
  <advance width="600.0"/>
  <unicode hex="00A2"/>
  <outline>
    <contour>
      <point x="278" y="-100" type="line"/>
      <point x="392" y="-100" type="line"/>
      <point x="392" y="80" type="line"/>
      <point x="278" y="80" type="line"/>
    </contour>
    <contour>
      <point x="278" y="520" type="line"/>
      <point x="392" y="520" type="line"/>
      <point x="392" y="695" type="line"/>
      <point x="278" y="695" type="line"/>
    </contour>
    <contour>
      <point x="91" y="289" type="curve" smooth="yes"/>
      <point x="91" y="122"/>
      <point x="196" y="26"/>
      <point x="346" y="26" type="curve" smooth="yes"/>
      <point x="414" y="26"/>
      <point x="474" y="46"/>
      <point x="517" y="77" type="curve"/>
      <point x="463" y="175" type="line"/>
      <point x="437" y="154"/>
      <point x="399" y="139"/>
      <point x="357" y="139" type="curve" smooth="yes"/>
      <point x="280" y="139"/>
      <point x="220" y="190"/>
      <point x="220" y="292" type="curve" smooth="yes"/>
      <point x="220" y="402"/>
      <point x="281" y="458"/>
      <point x="356" y="458" type="curve" smooth="yes"/>
      <point x="397" y="458"/>
      <point x="434" y="443"/>
      <point x="459" y="420" type="curve"/>
      <point x="514" y="518" type="line"/>
      <point x="471" y="549"/>
      <point x="415" y="569"/>
      <point x="355" y="569" type="curve" smooth="yes"/>
      <point x="203" y="569"/>
      <point x="91" y="461"/>
    </contour>
  </outline>
</glyph>
<glyph name="sterling" format="1">
  <advance width="600.0"/>
  <unicode hex="00A3"/>
  <outline>
    <contour>
      <point x="50" y="0" type="line"/>
      <point x="546" y="0" type="line"/>
      <point x="546" y="110" type="line"/>
      <point x="50" y="110" type="line"/>
    </contour>
    <contour>
      <point x="50" y="30" type="line"/>
      <point x="176" y="60"/>
      <point x="274" y="150"/>
      <point x="274" y="260" type="curve" smooth="yes"/>
      <point x="274" y="340"/>
      <point x="240" y="380"/>
      <point x="240" y="458" type="curve" smooth="yes"/>
      <point x="240" y="532"/>
      <point x="284" y="580"/>
      <point x="354" y="580" type="curve" smooth="yes"/>
      <point x="410" y="580"/>
      <point x="453" y="550"/>
      <point x="479" y="513" type="curve"/>
      <point x="565" y="603" type="line"/>
      <point x="517" y="661"/>
      <point x="430" y="701"/>
      <point x="347" y="701" type="curve" smooth="yes"/>
      <point x="212" y="701"/>
      <point x="109" y="618"/>
      <point x="109" y="468" type="curve" smooth="yes"/>
      <point x="109" y="380"/>
      <point x="146" y="344"/>
      <point x="146" y="260" type="curve" smooth="yes"/>
      <point x="146" y="200"/>
      <point x="112" y="142"/>
      <point x="50" y="114" type="curve"/>
    </contour>
    <contour>
      <point x="50" y="274" type="line"/>
      <point x="442" y="274" type="line"/>
      <point x="442" y="378" type="line"/>
      <point x="50" y="378" type="line"/>
    </contour>
  </outline>
</glyph>
<glyph name="yen" format="1">
  <advance width="600.0"/>
  <unicode hex="00A5"/>
  <outline>
    <contour>
      <point x="-9" y="690" type="line"/>
      <point x="244" y="276" type="line"/>
      <point x="315" y="276" type="line"/>
      <point x="319" y="383" type="line"/>
      <point x="145" y="690" type="line"/>
    </contour>
    <contour>
      <point x="83" y="137" type="line"/>
      <point x="517" y="137" type="line"/>
      <point x="517" y="228" type="line"/>
      <point x="83" y="228" type="line"/>
    </contour>
    <contour>
      <point x="83" y="291" type="line"/>
      <point x="517" y="291" type="line"/>
      <point x="517" y="382" type="line"/>
      <point x="83" y="382" type="line"/>
    </contour>
    <contour>
      <point x="233" y="0" type="line"/>
      <point x="367" y="0" type="line"/>
      <point x="367" y="314" type="line"/>
      <point x="233" y="314" type="line"/>
    </contour>
    <contour>
      <point x="285" y="383" type="line"/>
      <point x="293" y="276" type="line"/>
      <point x="356" y="276" type="line"/>
      <point x="609" y="690" type="line"/>
      <point x="459" y="690" type="line"/>
    </contour>
  </outline>
</glyph>
<glyph name="brokenbar" format="1">
  <advance width="299"/>
  <unicode hex="00A6"/>
  <outline>
    <contour>
      <point x="91" y="-215" type="line"/>
      <point x="208" y="-215" type="line"/>
      <point x="208" y="150" type="line"/>
      <point x="91" y="150" type="line"/>
    </contour>
    <contour>
      <point x="91" y="355" type="line"/>
      <point x="208" y="355" type="line"/>
      <point x="208" y="720" type="line"/>
      <point x="91" y="720" type="line"/>
    </contour>
  </outline>
</glyph>
<glyph name="dieresis" format="1">
  <advance width="600.0"/>
  <unicode hex="00A8"/>
  <outline>
    <contour>
      <point x="129" y="671" type="curve" smooth="yes"/>
      <point x="129" y="631"/>
      <point x="157" y="603"/>
      <point x="198" y="603" type="curve" smooth="yes"/>
      <point x="240" y="603"/>
      <point x="267" y="631"/>
      <point x="267" y="671" type="curve" smooth="yes"/>
      <point x="267" y="711"/>
      <point x="240" y="739"/>
      <point x="198" y="739" type="curve" smooth="yes"/>
      <point x="157" y="739"/>
      <point x="129" y="711"/>
    </contour>
    <contour>
      <point x="333" y="671" type="curve" smooth="yes"/>
      <point x="333" y="631"/>
      <point x="360" y="603"/>
      <point x="402" y="603" type="curve" smooth="yes"/>
      <point x="444" y="603"/>
      <point x="471" y="631"/>
      <point x="471" y="671" type="curve" smooth="yes"/>
      <point x="471" y="711"/>
      <point x="444" y="739"/>
      <point x="402" y="739" type="curve" smooth="yes"/>
      <point x="360" y="739"/>
      <point x="333" y="711"/>
    </contour>
    <contour>
      <point x="300" y="521" type="move" name="_top"/>
    </contour>
  </outline>
</glyph>
<glyph name="ordfeminine" format="1">
  <advance width="440.0"/>
  <unicode hex="00AA"/>
  <outline>
    <contour>
      <point x="46" y="394" type="curve" smooth="yes"/>
      <point x="46" y="322"/>
      <point x="100" y="279"/>
      <point x="163" y="279" type="curve" smooth="yes"/>
      <point x="221" y="279"/>
      <point x="272" y="310"/>
      <point x="303" y="354" type="curve"/>
      <point x="303" y="423" type="line"/>
      <point x="270" y="384"/>
      <point x="233" y="359"/>
      <point x="193" y="359" type="curve" smooth="yes"/>
      <point x="163" y="359"/>
      <point x="144" y="375"/>
      <point x="144" y="403" type="curve" smooth="yes"/>
      <point x="144" y="430"/>
      <point x="168" y="457"/>
      <point x="251" y="464" type="curve" smooth="yes"/>
      <point x="297" y="469" type="line"/>
      <point x="297" y="534" type="line"/>
      <point x="247" y="532" type="line" smooth="yes"/>
      <point x="97" y="526"/>
      <point x="46" y="464"/>
    </contour>
    <contour>
      <point x="52" y="655" type="curve"/>
      <point x="87" y="576" type="line"/>
      <point x="120" y="594"/>
      <point x="159" y="612"/>
      <point x="198" y="612" type="curve" smooth="yes"/>
      <point x="248" y="612"/>
      <point x="276" y="586"/>
      <point x="276" y="532" type="curve" smooth="yes"/>
      <point x="276" y="360" type="line"/>
      <point x="293" y="290" type="line"/>
      <point x="389" y="290" type="line"/>
      <point x="382" y="325" type="line" smooth="yes"/>
      <point x="378" y="347"/>
      <point x="377" y="364"/>
      <point x="377" y="386" type="curve" smooth="yes"/>
      <point x="377" y="542" type="line" smooth="yes"/>
      <point x="377" y="647"/>
      <point x="306" y="701"/>
      <point x="207" y="701" type="curve" smooth="yes"/>
      <point x="151" y="701"/>
      <point x="91" y="678"/>
    </contour>
  </outline>
</glyph>
<glyph name="registered" format="1">
  <advance width="810.0"/>
  <unicode hex="00AE"/>
  <outline>
    <contour>
      <point x="405" y="-10" type="curve" smooth="yes"/>
      <point x="605" y="-10"/>
      <point x="760" y="145"/>
      <point x="760" y="345" type="curve" smooth="yes"/>
      <point x="760" y="545"/>
      <point x="605" y="700"/>
      <point x="405" y="700" type="curve" smooth="yes"/>
      <point x="205" y="700"/>
      <point x="50" y="545"/>
      <point x="50" y="345" type="curve" smooth="yes"/>
      <point x="50" y="145"/>
      <point x="205" y="-10"/>
    </contour>
    <contour>
      <point x="405" y="60" type="curve" smooth="yes"/>
      <point x="245" y="60"/>
      <point x="122" y="185"/>
      <point x="122" y="345" type="curve" smooth="yes"/>
      <point x="122" y="505"/>
      <point x="245" y="630"/>
      <point x="405" y="630" type="curve" smooth="yes"/>
      <point x="565" y="630"/>
      <point x="688" y="505"/>
      <point x="688" y="345" type="curve" smooth="yes"/>
      <point x="688" y="185"/>
      <point x="565" y="60"/>
    </contour>
    <contour>
      <point x="256" y="138" type="line"/>
      <point x="350" y="138" type="line"/>
      <point x="350" y="552" type="line"/>
      <point x="256" y="552" type="line"/>
    </contour>
    <contour>
      <point x="300" y="282" type="line"/>
      <point x="409" y="282" type="line" smooth="yes"/>
      <point x="493" y="282"/>
      <point x="561" y="329"/>
      <point x="561" y="417" type="curve" smooth="yes"/>
      <point x="561" y="504"/>
      <point x="493" y="552"/>
      <point x="409" y="552" type="curve" smooth="yes"/>
      <point x="300" y="552" type="line"/>
      <point x="300" y="474" type="line"/>
      <point x="402" y="474" type="line" smooth="yes"/>
      <point x="441" y="474"/>
      <point x="467" y="454"/>
      <point x="467" y="417" type="curve" smooth="yes"/>
      <point x="467" y="379"/>
      <point x="440" y="358"/>
      <point x="402" y="358" type="curve" smooth="yes"/>
      <point x="300" y="358" type="line"/>
    </contour>
    <contour>
      <point x="380" y="312" type="line"/>
      <point x="468" y="138" type="line"/>
      <point x="574" y="138" type="line"/>
      <point x="474" y="312" type="line"/>
    </contour>
  </outline>
</glyph>
<glyph name="degree" format="1">
  <advance width="396.0"/>
  <unicode hex="00B0"/>
  <outline>
    <contour>
      <point x="38" y="543" type="curve" smooth="yes"/>
      <point x="38" y="454"/>
      <point x="108" y="385"/>
      <point x="198" y="385" type="curve" smooth="yes"/>
      <point x="288" y="385"/>
      <point x="358" y="454"/>
      <point x="358" y="543" type="curve" smooth="yes"/>
      <point x="358" y="632"/>
      <point x="288" y="701"/>
      <point x="198" y="701" type="curve" smooth="yes"/>
      <point x="108" y="701"/>
      <point x="38" y="632"/>
    </contour>
    <contour>
      <point x="127" y="543" type="curve" smooth="yes"/>
      <point x="127" y="586"/>
      <point x="157" y="618"/>
      <point x="198" y="618" type="curve" smooth="yes"/>
      <point x="239" y="618"/>
      <point x="269" y="586"/>
      <point x="269" y="543" type="curve" smooth="yes"/>
      <point x="269" y="500"/>
      <point x="239" y="468"/>
      <point x="198" y="468" type="curve" smooth="yes"/>
      <point x="157" y="468"/>
      <point x="127" y="500"/>
    </contour>
  </outline>
</glyph>
<glyph name="plusminus" format="1">
  <advance width="600.0"/>
  <unicode hex="00B1"/>
  <outline>
    <contour>
      <point x="66" y="59" type="line"/>
      <point x="534" y="59" type="line"/>
      <point x="534" y="169" type="line"/>
      <point x="66" y="169" type="line"/>
    </contour>
    <contour>
      <point x="66" y="275" type="line"/>
      <point x="534" y="275" type="line"/>
      <point x="534" y="388" type="line"/>
      <point x="66" y="388" type="line"/>
    </contour>
    <contour>
      <point x="241" y="59" type="line"/>
      <point x="359" y="59" type="line"/>
      <point x="359" y="533" type="line"/>
      <point x="241" y="533" type="line"/>
    </contour>
  </outline>
</glyph>
<glyph name="threesuperior" format="1">
  <advance width="440.0"/>
  <unicode hex="00B3"/>
  <outline>
    <contour>
      <point x="56" y="335" type="line"/>
      <point x="96" y="297"/>
      <point x="144" y="279"/>
      <point x="205" y="279" type="curve" smooth="yes"/>
      <point x="290" y="279"/>
      <point x="363" y="325"/>
      <point x="363" y="412" type="curve" smooth="yes"/>
      <point x="363" y="489"/>
      <point x="299" y="531"/>
      <point x="211" y="531" type="curve" smooth="yes"/>
      <point x="172" y="531" type="line"/>
      <point x="136" y="515" type="line"/>
      <point x="136" y="463" type="line"/>
      <point x="192" y="463" type="line" smooth="yes"/>
      <point x="240" y="463"/>
      <point x="266" y="445"/>
      <point x="266" y="412" type="curve" smooth="yes"/>
      <point x="266" y="379"/>
      <point x="237" y="361"/>
      <point x="202" y="361" type="curve" smooth="yes"/>
      <point x="165" y="361"/>
      <point x="135" y="377"/>
      <point x="110" y="404" type="curve"/>
    </contour>
    <contour>
      <point x="73" y="609" type="line"/>
      <point x="309" y="609" type="line"/>
      <point x="343" y="626" type="line"/>
      <point x="343" y="690" type="line"/>
      <point x="73" y="690" type="line"/>
    </contour>
    <contour>
      <point x="136" y="515" type="line"/>
      <point x="236" y="515" type="line"/>
      <point x="343" y="626" type="line"/>
      <point x="300" y="690" type="line"/>
    </contour>
  </outline>
</glyph>
<glyph name="acute" format="1">
  <advance width="600.0"/>
  <unicode hex="00B4"/>
  <outline>
    <contour>
      <point x="242" y="596" type="line"/>
      <point x="345" y="596" type="line"/>
      <point x="473" y="746" type="line"/>
      <point x="326" y="746" type="line"/>
    </contour>
    <contour>
      <point x="300" y="521" type="move" name="_top"/>
    </contour>
  </outline>
</glyph>
<glyph name="cedilla" format="1">
  <advance width="600.0"/>
  <unicode hex="00B8"/>
  <outline>
    <contour>
      <point x="221" y="-233" type="line"/>
      <point x="254" y="-233" type="line" smooth="yes"/>
      <point x="365" y="-233"/>
      <point x="405" y="-184"/>
      <point x="405" y="-133" type="curve" smooth="yes"/>
      <point x="405" y="-94"/>
      <point x="381" y="-64"/>
      <point x="323" y="-56" type="curve"/>
      <point x="334" y="9" type="line"/>
      <point x="266" y="15" type="line"/>
      <point x="246" y="-97" type="line"/>
      <point x="270" y="-99" type="line" smooth="yes"/>
      <point x="301" y="-102"/>
      <point x="313" y="-115"/>
      <point x="313" y="-133" type="curve" smooth="yes"/>
      <point x="313" y="-156"/>
      <point x="299" y="-174"/>
      <point x="234" y="-175" type="curve"/>
    </contour>
    <contour>
      <point x="300" y="0" type="move" name="_bottom"/>
    </contour>
  </outline>
</glyph>
<glyph name="questiondown" format="1">
  <advance width="514.0"/>
  <unicode hex="00BF"/>
  <outline>
    <contour>
      <point x="57" y="-7" type="curve" smooth="yes"/>
      <point x="57" y="-120"/>
      <point x="147" y="-196"/>
      <point x="269" y="-196" type="curve" smooth="yes"/>
      <point x="361" y="-196"/>
      <point x="440" y="-152"/>
      <point x="498" y="-87" type="curve"/>
      <point x="420" y="6" type="line"/>
      <point x="378" y="-47"/>
      <point x="337" y="-72"/>
      <point x="282" y="-72" type="curve" smooth="yes"/>
      <point x="228" y="-72"/>
      <point x="195" y="-38"/>
      <point x="195" y="3" type="curve" smooth="yes"/>
      <point x="195" y="36"/>
      <point x="216" y="66"/>
      <point x="276" y="107" type="curve" smooth="yes"/>
      <point x="313" y="132"/>
      <point x="332" y="166"/>
      <point x="327" y="216" type="curve" smooth="yes"/>
      <point x="321" y="290" type="line"/>
      <point x="218" y="290" type="line"/>
      <point x="215" y="238" type="line" smooth="yes"/>
      <point x="214" y="209"/>
      <point x="205" y="192"/>
      <point x="179" y="176" type="curve" smooth="yes"/>
      <point x="91" y="118"/>
      <point x="57" y="64"/>
    </contour>
    <contour>
      <point x="188" y="452" type="curve" smooth="yes"/>
      <point x="188" y="406"/>
      <point x="221" y="372"/>
      <point x="269" y="372" type="curve" smooth="yes"/>
      <point x="316" y="372"/>
      <point x="349" y="406"/>
      <point x="349" y="452" type="curve" smooth="yes"/>
      <point x="349" y="497"/>
      <point x="316" y="532"/>
      <point x="269" y="532" type="curve" smooth="yes"/>
      <point x="221" y="532"/>
      <point x="188" y="497"/>
    </contour>
  </outline>
</glyph>
<glyph name="AE" format="1">
  <advance width="969"/>
  <unicode hex="00C6"/>
  <outline>
    <contour>
      <point x="4" y="0" type="line"/>
      <point x="146" y="0" type="line"/>
      <point x="382" y="602" type="line"/>
      <point x="358" y="690" type="line"/>
      <point x="288" y="690" type="line"/>
    </contour>
    <contour>
      <point x="161" y="159" type="line"/>
      <point x="499" y="159" type="line"/>
      <point x="499" y="270" type="line"/>
      <point x="161" y="270" type="line"/>
    </contour>
    <contour>
      <point x="431" y="0" type="line"/>
      <point x="565" y="0" type="line"/>
      <point x="565" y="690" type="line"/>
      <point x="431" y="690" type="line"/>
    </contour>
    <contour>
      <point x="495" y="0" type="line"/>
      <point x="905" y="0" type="line"/>
      <point x="905" y="118" type="line"/>
      <point x="495" y="118" type="line"/>
    </contour>
    <contour>
      <point x="495" y="292" type="line"/>
      <point x="852" y="292" type="line"/>
      <point x="852" y="406" type="line"/>
      <point x="495" y="406" type="line"/>
    </contour>
    <contour>
      <point x="326" y="572" type="line"/>
      <point x="900" y="572" type="line"/>
      <point x="900" y="690" type="line"/>
      <point x="326" y="690" type="line"/>
    </contour>
    <contour>
      <point x="583" y="690" type="move" name="top"/>
    </contour>
  </outline>
</glyph>
<glyph name="Ccedilla" format="1">
  <advance width="649"/>
  <unicode hex="00C7"/>
  <outline>
    <contour>
      <point x="51" y="345" type="curve" smooth="yes"/>
      <point x="51" y="120"/>
      <point x="203" y="-11"/>
      <point x="383" y="-11" type="curve" smooth="yes"/>
      <point x="472" y="-11"/>
      <point x="544" y="18"/>
      <point x="608" y="75" type="curve"/>
      <point x="527" y="175" type="line"/>
      <point x="486" y="137"/>
      <point x="436" y="115"/>
      <point x="379" y="115" type="curve" smooth="yes"/>
      <point x="272" y="115"/>
      <point x="188" y="193"/>
      <point x="188" y="345" type="curve" smooth="yes"/>
      <point x="188" y="497"/>
      <point x="272" y="575"/>
      <point x="378" y="575" type="curve" smooth="yes"/>
      <point x="433" y="575"/>
      <point x="481" y="554"/>
      <point x="523" y="520" type="curve"/>
      <point x="602" y="622" type="line"/>
      <point x="536" y="673"/>
      <point x="466" y="701"/>
      <point x="381" y="701" type="curve" smooth="yes"/>
      <point x="203" y="701"/>
      <point x="51" y="570"/>
    </contour>
    <contour>
      <point x="292" y="-233" type="line"/>
      <point x="325" y="-233" type="line" smooth="yes"/>
      <point x="436" y="-233"/>
      <point x="476" y="-184"/>
      <point x="476" y="-133" type="curve" smooth="yes"/>
      <point x="476" y="-94"/>
      <point x="452" y="-64"/>
      <point x="394" y="-56" type="curve"/>
      <point x="405" y="9" type="line"/>
      <point x="337" y="15" type="line"/>
      <point x="317" y="-97" type="line"/>
      <point x="341" y="-99" type="line" smooth="yes"/>
      <point x="372" y="-102"/>
      <point x="384" y="-115"/>
      <point x="384" y="-133" type="curve" smooth="yes"/>
      <point x="384" y="-156"/>
      <point x="370" y="-174"/>
      <point x="305" y="-175" type="curve"/>
    </contour>
  </outline>
</glyph>
<glyph name="Eth" format="1">
  <advance width="722"/>
  <unicode hex="00D0"/>
  <outline>
    <contour>
      <point x="35" y="286" type="line"/>
      <point x="371" y="286" type="line"/>
      <point x="371" y="398" type="line"/>
      <point x="35" y="398" type="line"/>
    </contour>
    <contour>
      <point x="98" y="0" type="line"/>
      <point x="232" y="0" type="line"/>
      <point x="232" y="690" type="line"/>
      <point x="98" y="690" type="line"/>
    </contour>
    <contour>
      <point x="162" y="0" type="line"/>
      <point x="344" y="0" type="line" smooth="yes"/>
      <point x="527" y="0"/>
      <point x="671" y="126"/>
      <point x="671" y="345" type="curve" smooth="yes"/>
      <point x="671" y="564"/>
      <point x="527" y="690"/>
      <point x="344" y="690" type="curve" smooth="yes"/>
      <point x="162" y="690" type="line"/>
      <point x="162" y="572" type="line"/>
      <point x="333" y="572" type="line" smooth="yes"/>
      <point x="451" y="572"/>
      <point x="533" y="494"/>
      <point x="533" y="345" type="curve" smooth="yes"/>
      <point x="533" y="196"/>
      <point x="451" y="118"/>
      <point x="333" y="118" type="curve" smooth="yes"/>
      <point x="162" y="118" type="line"/>
    </contour>
  </outline>
</glyph>
<glyph name="multiply" format="1">
  <advance width="600.0"/>
  <unicode hex="00D7"/>
  <outline>
    <contour>
      <point x="71" y="436" type="line"/>
      <point x="446" y="61" type="line"/>
      <point x="529" y="143" type="line"/>
      <point x="154" y="518" type="line"/>
    </contour>
    <contour>
      <point x="71" y="141" type="line"/>
      <point x="151" y="61" type="line"/>
      <point x="529" y="438" type="line"/>
      <point x="449" y="518" type="line"/>
    </contour>
  </outline>
</glyph>
<glyph name="Thorn" format="1">
  <advance width="645"/>
  <unicode hex="00DE"/>
  <outline>
    <contour>
      <point x="91" y="0" type="line"/>
      <point x="225" y="0" type="line"/>
      <point x="225" y="690" type="line"/>
      <point x="91" y="690" type="line"/>
    </contour>
    <contour>
      <point x="155" y="114" type="line"/>
      <point x="345" y="114" type="line" smooth="yes"/>
      <point x="489" y="114"/>
      <point x="601" y="198"/>
      <point x="601" y="345" type="curve" smooth="yes"/>
      <point x="601" y="492"/>
      <point x="489" y="576"/>
      <point x="345" y="576" type="curve" smooth="yes"/>
      <point x="155" y="576" type="line"/>
      <point x="155" y="458" type="line"/>
      <point x="334" y="458" type="line" smooth="yes"/>
      <point x="410" y="458"/>
      <point x="464" y="419"/>
      <point x="464" y="345" type="curve" smooth="yes"/>
      <point x="464" y="270"/>
      <point x="410" y="232"/>
      <point x="334" y="232" type="curve" smooth="yes"/>
      <point x="155" y="232" type="line"/>
    </contour>
  </outline>
</glyph>
<glyph name="ccedilla" format="1">
  <advance width="500"/>
  <unicode hex="00E7"/>
  <outline>
    <contour>
      <point x="45" y="252" type="curve" smooth="yes"/>
      <point x="45" y="85"/>
      <point x="150" y="-11"/>
      <point x="300" y="-11" type="curve" smooth="yes"/>
      <point x="368" y="-11"/>
      <point x="428" y="9"/>
      <point x="471" y="40" type="curve"/>
      <point x="417" y="138" type="line"/>
      <point x="391" y="117"/>
      <point x="353" y="102"/>
      <point x="311" y="102" type="curve" smooth="yes"/>
      <point x="234" y="102"/>
      <point x="174" y="153"/>
      <point x="174" y="255" type="curve" smooth="yes"/>
      <point x="174" y="365"/>
      <point x="235" y="421"/>
      <point x="310" y="421" type="curve" smooth="yes"/>
      <point x="351" y="421"/>
      <point x="388" y="406"/>
      <point x="413" y="383" type="curve"/>
      <point x="468" y="481" type="line"/>
      <point x="425" y="512"/>
      <point x="369" y="532"/>
      <point x="309" y="532" type="curve" smooth="yes"/>
      <point x="157" y="532"/>
      <point x="45" y="424"/>
    </contour>
    <contour>
      <point x="209" y="-233" type="line"/>
      <point x="242" y="-233" type="line" smooth="yes"/>
      <point x="353" y="-233"/>
      <point x="393" y="-184"/>
      <point x="393" y="-133" type="curve" smooth="yes"/>
      <point x="393" y="-94"/>
      <point x="369" y="-64"/>
      <point x="311" y="-56" type="curve"/>
      <point x="322" y="9" type="line"/>
      <point x="254" y="15" type="line"/>
      <point x="234" y="-97" type="line"/>
      <point x="258" y="-99" type="line" smooth="yes"/>
      <point x="289" y="-102"/>
      <point x="301" y="-115"/>
      <point x="301" y="-133" type="curve" smooth="yes"/>
      <point x="301" y="-156"/>
      <point x="287" y="-174"/>
      <point x="222" y="-175" type="curve"/>
    </contour>
  </outline>
</glyph>
<glyph name="eth" format="1">
  <advance width="578"/>
  <unicode hex="00F0"/>
  <outline>
    <contour>
      <point x="49" y="235" type="curve" smooth="yes"/>
      <point x="49" y="75"/>
      <point x="158" y="-11"/>
      <point x="286" y="-11" type="curve" smooth="yes"/>
      <point x="416" y="-11"/>
      <point x="524" y="85"/>
      <point x="524" y="272" type="curve" smooth="yes"/>
      <point x="524" y="460"/>
      <point x="398" y="638"/>
      <point x="280" y="720" type="curve"/>
      <point x="124" y="720" type="line"/>
      <point x="281" y="602"/>
      <point x="397" y="440"/>
      <point x="397" y="272" type="curve" smooth="yes"/>
      <point x="397" y="154"/>
      <point x="349" y="94"/>
      <point x="286" y="94" type="curve" smooth="yes"/>
      <point x="224" y="94"/>
      <point x="174" y="144"/>
      <point x="174" y="235" type="curve" smooth="yes"/>
      <point x="174" y="326"/>
      <point x="224" y="376"/>
      <point x="286" y="376" type="curve" smooth="yes"/>
      <point x="339" y="376"/>
      <point x="385" y="345"/>
      <point x="412" y="292" type="curve"/>
      <point x="424" y="380" type="line"/>
      <point x="394" y="430"/>
      <point x="345" y="481"/>
      <point x="262" y="481" type="curve" smooth="yes"/>
      <point x="158" y="481"/>
      <point x="49" y="395"/>
    </contour>
    <contour>
      <point x="179" y="529" type="line"/>
      <point x="459" y="661" type="line"/>
      <point x="426" y="731" type="line"/>
      <point x="146" y="599" type="line"/>
    </contour>
  </outline>
</glyph>
<glyph name="dcroat" format="1">
  <advance width="605"/>
  <unicode hex="0111"/>
  <outline>
    <contour>
      <point x="45" y="254" type="curve" smooth="yes"/>
      <point x="45" y="90"/>
      <point x="134" y="-11"/>
      <point x="240" y="-11" type="curve" smooth="yes"/>
      <point x="308" y="-11"/>
      <point x="366" y="28"/>
      <point x="408" y="84" type="curve"/>
      <point x="408" y="172" type="line"/>
      <point x="371" y="130"/>
      <point x="325" y="104"/>
      <point x="280" y="104" type="curve" smooth="yes"/>
      <point x="217" y="104"/>
      <point x="172" y="157"/>
      <point x="172" y="260" type="curve" smooth="yes"/>
      <point x="172" y="358"/>
      <point x="221" y="419"/>
      <point x="293" y="419" type="curve"/>
      <point x="348" y="419"/>
      <point x="393" y="376"/>
      <point x="393" y="280" type="curve"/>
      <point x="440" y="287" type="line"/>
      <point x="440" y="439"/>
      <point x="359" y="520"/>
      <point x="262" y="520" type="curve"/>
      <point x="135" y="520"/>
      <point x="45" y="424"/>
    </contour>
    <contour>
      <point x="412" y="0" type="line"/>
      <point x="534" y="0" type="line"/>
      <point x="526" y="47" type="line" smooth="yes"/>
      <point x="521" y="76"/>
      <point x="519" y="96"/>
      <point x="519" y="124" type="curve" smooth="yes"/>
      <point x="519" y="735" type="line"/>
      <point x="393" y="715" type="line"/>
      <point x="393" y="132" type="line"/>
      <point x="394" y="95" type="line"/>
    </contour>
    <contour>
      <point x="261" y="573" type="line"/>
      <point x="585" y="573" type="line"/>
      <point x="585" y="660" type="line"/>
      <point x="261" y="660" type="line"/>
    </contour>
  </outline>
</glyph>
<glyph name="IJ" format="1">
  <advance width="787.0"/>
  <unicode hex="0132"/>
  <outline>
    <contour>
      <point x="91" y="0" type="line"/>
      <point x="225" y="0" type="line"/>
      <point x="225" y="690" type="line"/>
      <point x="91" y="690" type="line"/>
    </contour>
    <contour>
      <point x="315" y="26" type="line"/>
      <point x="356" y="1"/>
      <point x="405" y="-11"/>
      <point x="458" y="-11" type="curve" smooth="yes"/>
      <point x="592" y="-11"/>
      <point x="706" y="78"/>
      <point x="706" y="241" type="curve" smooth="yes"/>
      <point x="706" y="690" type="line"/>
      <point x="572" y="690" type="line"/>
      <point x="572" y="257" type="line" smooth="yes"/>
      <point x="572" y="158"/>
      <point x="526" y="110"/>
      <point x="452" y="110" type="curve" smooth="yes"/>
      <point x="417" y="110"/>
      <point x="389" y="121"/>
      <point x="368" y="136" type="curve"/>
    </contour>
  </outline>
</glyph>
<glyph name="kra" format="1">
  <advance width="558"/>
  <unicode hex="0138"/>
  <outline>
    <contour>
      <point x="81" y="0" type="line"/>
      <point x="208" y="0" type="line"/>
      <point x="208" y="521" type="line"/>
      <point x="81" y="521" type="line"/>
    </contour>
    <contour>
      <point x="172" y="127" type="line"/>
      <point x="538" y="521" type="line"/>
      <point x="380" y="521" type="line"/>
      <point x="172" y="277" type="line"/>
    </contour>
    <contour>
      <point x="240" y="267" type="line"/>
      <point x="405" y="0" type="line"/>
      <point x="552" y="0" type="line"/>
      <point x="322" y="346" type="line"/>
    </contour>
  </outline>
</glyph>
<glyph name="Lslash" format="1">
  <advance width="583"/>
  <unicode hex="0141"/>
  <outline>
    <contour>
      <point x="98" y="0" type="line"/>
      <point x="232" y="0" type="line"/>
      <point x="232" y="690" type="line"/>
      <point x="98" y="690" type="line"/>
    </contour>
    <contour>
      <point x="162" y="0" type="line"/>
      <point x="546" y="0" type="line"/>
      <point x="546" y="118" type="line"/>
      <point x="162" y="118" type="line"/>
    </contour>
    <contour>
      <point x="32" y="186" type="line"/>
      <point x="364" y="372" type="line"/>
      <point x="364" y="498" type="line"/>
      <point x="32" y="312" type="line"/>
    </contour>
  </outline>
</glyph>
<glyph name="lslash" format="1">
  <advance width="311"/>
  <unicode hex="0142"/>
  <outline>
    <contour>
      <point x="92" y="0" type="line"/>
      <point x="219" y="0" type="line"/>
      <point x="219" y="735" type="line"/>
      <point x="92" y="715" type="line"/>
    </contour>
    <contour>
      <point x="26" y="190" type="line"/>
      <point x="290" y="336" type="line"/>
      <point x="290" y="452" type="line"/>
      <point x="26" y="306" type="line"/>
    </contour>
  </outline>
</glyph>
<glyph name="Eng" format="1">
  <advance width="754"/>
  <unicode hex="014A"/>
  <outline>
    <contour>
      <point x="91" y="0" type="line"/>
      <point x="216" y="0" type="line"/>
      <point x="216" y="690" type="line"/>
      <point x="91" y="690" type="line"/>
    </contour>
    <contour>
      <point x="139" y="690" type="line"/>
      <point x="538" y="0" type="line"/>
      <point x="653" y="32" type="line"/>
      <point x="272" y="690" type="line"/>
    </contour>
    <contour>
      <point x="400" y="-181" type="line"/>
      <point x="425" y="-190"/>
      <point x="459" y="-196"/>
      <point x="488" y="-196" type="curve" smooth="yes"/>
      <point x="594" y="-196"/>
      <point x="663" y="-131"/>
      <point x="663" y="-9" type="curve" smooth="yes"/>
      <point x="663" y="690" type="line"/>
      <point x="538" y="690" type="line"/>
      <point x="538" y="-2" type="line" smooth="yes"/>
      <point x="538" y="-63"/>
      <point x="512" y="-85"/>
      <point x="468" y="-85" type="curve" smooth="yes"/>
      <point x="450" y="-85"/>
      <point x="435" y="-82"/>
      <point x="416" y="-76" type="curve"/>
    </contour>
  </outline>
</glyph>
<glyph name="oe" format="1">
  <advance width="891.0"/>
  <unicode hex="0153"/>
  <outline>
    <contour>
      <point x="45" y="260" type="curve" smooth="yes"/>
      <point x="45" y="89"/>
      <point x="141" y="-11"/>
      <point x="273" y="-11" type="curve" smooth="yes"/>
      <point x="399" y="-11"/>
      <point x="488" y="86"/>
      <point x="488" y="260" type="curve" smooth="yes"/>
      <point x="488" y="434"/>
      <point x="399" y="532"/>
      <point x="273" y="532" type="curve" smooth="yes"/>
      <point x="141" y="532"/>
      <point x="45" y="431"/>
    </contour>
    <contour>
      <point x="174" y="260" type="curve" smooth="yes"/>
      <point x="174" y="372"/>
      <point x="212" y="427"/>
      <point x="276" y="427" type="curve" smooth="yes"/>
      <point x="343" y="427"/>
      <point x="385" y="372"/>
      <point x="385" y="260" type="curve" smooth="yes"/>
      <point x="385" y="148"/>
      <point x="343" y="94"/>
      <point x="276" y="94" type="curve" smooth="yes"/>
      <point x="212" y="94"/>
      <point x="174" y="148"/>
    </contour>
    <contour>
      <point x="424" y="252" type="curve" smooth="yes"/>
      <point x="424" y="84"/>
      <point x="513" y="-12"/>
      <point x="661" y="-12" type="curve" smooth="yes"/>
      <point x="719" y="-12"/>
      <point x="773" y="6"/>
      <point x="817" y="33" type="curve"/>
      <point x="775" y="130" type="line"/>
      <point x="746" y="110"/>
      <point x="708" y="95"/>
      <point x="668" y="95" type="curve" smooth="yes"/>
      <point x="586" y="95"/>
      <point x="527" y="153"/>
      <point x="527" y="258" type="curve" smooth="yes"/>
      <point x="527" y="376"/>
      <point x="571" y="430"/>
      <point x="634" y="430" type="curve" smooth="yes"/>
      <point x="689" y="430"/>
      <point x="726" y="383"/>
      <point x="726" y="270" type="curve"/>
      <point x="751" y="309" type="line"/>
      <point x="495" y="309" type="line"/>
      <point x="495" y="223" type="line"/>
      <point x="844" y="223" type="line"/>
      <point x="846" y="235"/>
      <point x="848" y="253"/>
      <point x="848" y="271" type="curve" smooth="yes"/>
      <point x="848" y="438"/>
      <point x="761" y="532"/>
      <point x="640" y="532" type="curve" smooth="yes"/>
      <point x="514" y="532"/>
      <point x="424" y="430"/>
    </contour>
  </outline>
</glyph>
<glyph name="Scedilla" format="1">
  <advance width="632"/>
  <unicode hex="015E"/>
  <outline>
    <contour>
      <point x="41" y="82" type="line"/>
      <point x="117" y="25"/>
      <point x="217" y="-11"/>
      <point x="313" y="-11" type="curve" smooth="yes"/>
      <point x="492" y="-11"/>
      <point x="583" y="81"/>
      <point x="583" y="190" type="curve" smooth="yes"/>
      <point x="583" y="286"/>
      <point x="518" y="360"/>
      <point x="346" y="417" type="curve" smooth="yes"/>
      <point x="240" y="451"/>
      <point x="208" y="480"/>
      <point x="208" y="517" type="curve" smooth="yes"/>
      <point x="208" y="553"/>
      <point x="244" y="586"/>
      <point x="313" y="586" type="curve" smooth="yes"/>
      <point x="383" y="586"/>
      <point x="448" y="559"/>
      <point x="501" y="516" type="curve"/>
      <point x="565" y="621" type="line"/>
      <point x="503" y="669"/>
      <point x="410" y="701"/>
      <point x="324" y="701" type="curve" smooth="yes"/>
      <point x="165" y="701"/>
      <point x="74" y="612"/>
      <point x="74" y="505" type="curve" smooth="yes"/>
      <point x="74" y="416"/>
      <point x="133" y="344"/>
      <point x="300" y="289" type="curve" smooth="yes"/>
      <point x="416" y="251"/>
      <point x="445" y="217"/>
      <point x="445" y="179" type="curve" smooth="yes"/>
      <point x="445" y="139"/>
      <point x="403" y="106"/>
      <point x="327" y="106" type="curve" smooth="yes"/>
      <point x="247" y="106"/>
      <point x="168" y="139"/>
      <point x="109" y="189" type="curve"/>
    </contour>
    <contour>
      <point x="234" y="-233" type="line"/>
      <point x="267" y="-233" type="line" smooth="yes"/>
      <point x="378" y="-233"/>
      <point x="418" y="-184"/>
      <point x="418" y="-133" type="curve" smooth="yes"/>
      <point x="418" y="-94"/>
      <point x="394" y="-64"/>
      <point x="336" y="-56" type="curve"/>
      <point x="347" y="9" type="line"/>
      <point x="279" y="15" type="line"/>
      <point x="259" y="-97" type="line"/>
      <point x="283" y="-99" type="line" smooth="yes"/>
      <point x="314" y="-102"/>
      <point x="326" y="-115"/>
      <point x="326" y="-133" type="curve" smooth="yes"/>
      <point x="326" y="-156"/>
      <point x="312" y="-174"/>
      <point x="247" y="-175" type="curve"/>
    </contour>
  </outline>
</glyph>
<glyph name="scedilla" format="1">
  <advance width="491"/>
  <unicode hex="015F"/>
  <outline>
    <contour>
      <point x="35" y="45" type="line"/>
      <point x="84" y="12"/>
      <point x="154" y="-11"/>
      <point x="231" y="-11" type="curve" smooth="yes"/>
      <point x="363" y="-11"/>
      <point x="450" y="55"/>
      <point x="450" y="148" type="curve" smooth="yes"/>
      <point x="450" y="226"/>
      <point x="403" y="278"/>
      <point x="270" y="322" type="curve" smooth="yes"/>
      <point x="198" y="345"/>
      <point x="178" y="359"/>
      <point x="178" y="386" type="curve" smooth="yes"/>
      <point x="178" y="411"/>
      <point x="202" y="429"/>
      <point x="251" y="429" type="curve" smooth="yes"/>
      <point x="296" y="429"/>
      <point x="348" y="411"/>
      <point x="384" y="388" type="curve"/>
      <point x="434" y="484" type="line"/>
      <point x="385" y="513"/>
      <point x="321" y="532"/>
      <point x="259" y="532" type="curve" smooth="yes"/>
      <point x="133" y="532"/>
      <point x="55" y="464"/>
      <point x="55" y="375" type="curve" smooth="yes"/>
      <point x="55" y="299"/>
      <point x="102" y="246"/>
      <point x="231" y="204" type="curve" smooth="yes"/>
      <point x="298" y="182"/>
      <point x="319" y="164"/>
      <point x="319" y="138" type="curve" smooth="yes"/>
      <point x="319" y="111"/>
      <point x="296" y="92"/>
      <point x="239" y="92" type="curve" smooth="yes"/>
      <point x="181" y="92"/>
      <point x="127" y="114"/>
      <point x="87" y="142" type="curve"/>
    </contour>
    <contour>
      <point x="152" y="-233" type="line"/>
      <point x="185" y="-233" type="line" smooth="yes"/>
      <point x="296" y="-233"/>
      <point x="336" y="-184"/>
      <point x="336" y="-133" type="curve" smooth="yes"/>
      <point x="336" y="-94"/>
      <point x="312" y="-64"/>
      <point x="254" y="-56" type="curve"/>
      <point x="265" y="9" type="line"/>
      <point x="197" y="15" type="line"/>
      <point x="177" y="-97" type="line"/>
      <point x="201" y="-99" type="line" smooth="yes"/>
      <point x="232" y="-102"/>
      <point x="244" y="-115"/>
      <point x="244" y="-133" type="curve" smooth="yes"/>
      <point x="244" y="-156"/>
      <point x="230" y="-174"/>
      <point x="165" y="-175" type="curve"/>
    </contour>
  </outline>
</glyph>
<glyph name="Tcedilla" format="1">
  <advance width="582.0"/>
  <unicode hex="0162"/>
  <outline>
    <contour>
      <point x="27" y="572" type="line"/>
      <point x="555" y="572" type="line"/>
      <point x="555" y="690" type="line"/>
      <point x="27" y="690" type="line"/>
    </contour>
    <contour>
      <point x="224" y="0" type="line"/>
      <point x="358" y="0" type="line"/>
      <point x="358" y="690" type="line"/>
      <point x="224" y="690" type="line"/>
    </contour>
    <contour>
      <point x="212" y="-233" type="line"/>
      <point x="245" y="-233" type="line" smooth="yes"/>
      <point x="356" y="-233"/>
      <point x="396" y="-184"/>
      <point x="396" y="-133" type="curve" smooth="yes"/>
      <point x="396" y="-94"/>
      <point x="372" y="-64"/>
      <point x="314" y="-56" type="curve"/>
      <point x="325" y="9" type="line"/>
      <point x="257" y="15" type="line"/>
      <point x="237" y="-97" type="line"/>
      <point x="261" y="-99" type="line" smooth="yes"/>
      <point x="292" y="-102"/>
      <point x="304" y="-115"/>
      <point x="304" y="-133" type="curve" smooth="yes"/>
      <point x="304" y="-156"/>
      <point x="290" y="-174"/>
      <point x="225" y="-175" type="curve"/>
    </contour>
  </outline>
</glyph>
<glyph name="tcedilla" format="1">
  <advance width="417"/>
  <unicode hex="0163"/>
  <outline>
    <contour>
      <point x="17" y="420" type="line"/>
      <point x="378" y="420" type="line"/>
      <point x="378" y="521" type="line"/>
      <point x="17" y="521" type="line"/>
    </contour>
    <contour>
      <point x="107" y="170" type="line" smooth="yes"/>
      <point x="107" y="50"/>
      <point x="177" y="-11"/>
      <point x="280" y="-11" type="curve"/>
      <point x="317" y="-11"/>
      <point x="356" y="-3"/>
      <point x="389" y="9" type="curve"/>
      <point x="373" y="118" type="line"/>
      <point x="348" y="109"/>
      <point x="325" y="104"/>
      <point x="305" y="104" type="curve"/>
      <point x="257" y="104"/>
      <point x="234" y="128"/>
      <point x="234" y="183" type="curve" smooth="yes"/>
      <point x="234" y="658" type="line"/>
      <point x="107" y="638" type="line"/>
    </contour>
    <contour>
      <point x="157" y="-233" type="line"/>
      <point x="190" y="-233" type="line" smooth="yes"/>
      <point x="301" y="-233"/>
      <point x="341" y="-184"/>
      <point x="341" y="-133" type="curve" smooth="yes"/>
      <point x="341" y="-94"/>
      <point x="317" y="-64"/>
      <point x="259" y="-56" type="curve"/>
      <point x="270" y="9" type="line"/>
      <point x="202" y="15" type="line"/>
      <point x="182" y="-97" type="line"/>
      <point x="206" y="-99" type="line" smooth="yes"/>
      <point x="237" y="-102"/>
      <point x="249" y="-115"/>
      <point x="249" y="-133" type="curve" smooth="yes"/>
      <point x="249" y="-156"/>
      <point x="235" y="-174"/>
      <point x="170" y="-175" type="curve"/>
    </contour>
  </outline>
</glyph>
<glyph name="florin" format="1">
  <advance width="600.0"/>
  <unicode hex="0192"/>
  <outline>
    <contour>
      <point x="80" y="-181" type="line"/>
      <point x="105" y="-190"/>
      <point x="139" y="-196"/>
      <point x="168" y="-196" type="curve"/>
      <point x="273" y="-196"/>
      <point x="345" y="-131"/>
      <point x="345" y="-9" type="curve" smooth="yes"/>
      <point x="345" y="537" type="line" smooth="yes"/>
      <point x="345" y="594"/>
      <point x="368" y="626"/>
      <point x="421" y="626" type="curve" smooth="yes"/>
      <point x="443" y="626"/>
      <point x="466" y="622"/>
      <point x="490" y="613" type="curve"/>
      <point x="507" y="711" type="line"/>
      <point x="474" y="723"/>
      <point x="434" y="731"/>
      <point x="399" y="731" type="curve" smooth="yes"/>
      <point x="290" y="731"/>
      <point x="218" y="659"/>
      <point x="218" y="537" type="curve" smooth="yes"/>
      <point x="218" y="-2" type="line" smooth="yes"/>
      <point x="218" y="-63"/>
      <point x="192" y="-85"/>
      <point x="148" y="-85" type="curve"/>
      <point x="130" y="-85"/>
      <point x="115" y="-82"/>
      <point x="96" y="-76" type="curve"/>
    </contour>
    <contour>
      <point x="128" y="420" type="line"/>
      <point x="487" y="420" type="line"/>
      <point x="487" y="521" type="line"/>
      <point x="128" y="521" type="line"/>
    </contour>
  </outline>
</glyph>
<glyph name="Oogonek" format="1">
  <advance width="737"/>
  <unicode hex="01EA"/>
  <outline>
    <contour>
      <point x="524" y="-170" type="curve"/>
      <point x="498" y="-108" type="line"/>
      <point x="483" y="-117"/>
      <point x="468" y="-126"/>
      <point x="448" y="-126" type="curve" smooth="yes"/>
      <point x="429" y="-126"/>
      <point x="416" y="-113"/>
      <point x="416" y="-94" type="curve" smooth="yes"/>
      <point x="416" y="-62"/>
      <point x="442" y="-24"/>
      <point x="524" y="28" type="curve" smooth="yes"/>
      <point x="620" y="88"/>
      <point x="686" y="191"/>
      <point x="686" y="345" type="curve" smooth="yes"/>
      <point x="686" y="572"/>
      <point x="543" y="701"/>
      <point x="368" y="701" type="curve" smooth="yes"/>
      <point x="194" y="701"/>
      <point x="51" y="572"/>
      <point x="51" y="345" type="curve" smooth="yes"/>
      <point x="51" y="118"/>
      <point x="194" y="-11"/>
      <point x="368" y="-11" type="curve" smooth="yes"/>
      <point x="376" y="-11"/>
      <point x="384" y="-11"/>
      <point x="392" y="-10" type="curve"/>
      <point x="359" y="-37"/>
      <point x="339" y="-70"/>
      <point x="339" y="-110" type="curve" smooth="yes"/>
      <point x="339" y="-164"/>
      <point x="380" y="-196"/>
      <point x="437" y="-196" type="curve" smooth="yes"/>
      <point x="472" y="-196"/>
      <point x="499" y="-185"/>
    </contour>
    <contour>
      <point x="188" y="345" type="curve" smooth="yes"/>
      <point x="188" y="502"/>
      <point x="265" y="580"/>
      <point x="368" y="580" type="curve" smooth="yes"/>
      <point x="472" y="580"/>
      <point x="548" y="502"/>
      <point x="548" y="345" type="curve" smooth="yes"/>
      <point x="548" y="188"/>
      <point x="472" y="110"/>
      <point x="368" y="110" type="curve" smooth="yes"/>
      <point x="265" y="110"/>
      <point x="188" y="188"/>
    </contour>
  </outline>
</glyph>
<glyph name="oogonek" format="1">
  <advance width="584.0"/>
  <unicode hex="01EB"/>
  <outline>
    <contour>
      <point x="434" y="-170" type="curve"/>
      <point x="408" y="-108" type="line"/>
      <point x="393" y="-117"/>
      <point x="378" y="-126"/>
      <point x="358" y="-126" type="curve" smooth="yes"/>
      <point x="339" y="-126"/>
      <point x="326" y="-113"/>
      <point x="326" y="-94" type="curve" smooth="yes"/>
      <point x="326" y="-63"/>
      <point x="351" y="-27"/>
      <point x="428" y="25" type="curve" smooth="yes"/>
      <point x="496" y="72"/>
      <point x="539" y="149"/>
      <point x="539" y="260" type="curve" smooth="yes"/>
      <point x="539" y="431"/>
      <point x="436" y="532"/>
      <point x="292" y="532" type="curve" smooth="yes"/>
      <point x="148" y="532"/>
      <point x="45" y="431"/>
      <point x="45" y="260" type="curve" smooth="yes"/>
      <point x="45" y="89"/>
      <point x="148" y="-11"/>
      <point x="292" y="-11" type="curve" smooth="yes"/>
      <point x="295" y="-11"/>
      <point x="298" y="-11"/>
      <point x="301" y="-11" type="curve"/>
      <point x="269" y="-37"/>
      <point x="249" y="-71"/>
      <point x="249" y="-110" type="curve" smooth="yes"/>
      <point x="249" y="-164"/>
      <point x="290" y="-196"/>
      <point x="347" y="-196" type="curve" smooth="yes"/>
      <point x="382" y="-196"/>
      <point x="409" y="-185"/>
    </contour>
    <contour>
      <point x="174" y="260" type="curve" smooth="yes"/>
      <point x="174" y="372"/>
      <point x="219" y="427"/>
      <point x="292" y="427" type="curve" smooth="yes"/>
      <point x="365" y="427"/>
      <point x="410" y="372"/>
      <point x="410" y="260" type="curve" smooth="yes"/>
      <point x="410" y="148"/>
      <point x="365" y="94"/>
      <point x="292" y="94" type="curve" smooth="yes"/>
      <point x="219" y="94"/>
      <point x="174" y="148"/>
    </contour>
  </outline>
</glyph>
<glyph name="circumflex" format="1">
  <advance width="600.0"/>
  <unicode hex="02C6"/>
  <outline>
    <contour>
      <point x="140" y="596" type="line"/>
      <point x="243" y="596" type="line"/>
      <point x="361" y="746" type="line"/>
      <point x="236" y="746" type="line"/>
    </contour>
    <contour>
      <point x="239" y="746" type="line"/>
      <point x="357" y="596" type="line"/>
      <point x="460" y="596" type="line"/>
      <point x="364" y="746" type="line"/>
    </contour>
    <contour>
      <point x="300" y="521" type="move" name="_top"/>
    </contour>
  </outline>
</glyph>
<glyph name="dotaccent" format="1">
  <advance width="600.0"/>
  <unicode hex="02D9"/>
  <outline>
    <contour>
      <point x="229" y="669" type="curve" smooth="yes"/>
      <point x="229" y="628"/>
      <point x="258" y="599"/>
      <point x="300" y="599" type="curve" smooth="yes"/>
      <point x="342" y="599"/>
      <point x="371" y="628"/>
      <point x="371" y="669" type="curve" smooth="yes"/>
      <point x="371" y="710"/>
      <point x="342" y="739"/>
      <point x="300" y="739" type="curve" smooth="yes"/>
      <point x="258" y="739"/>
      <point x="229" y="710"/>
    </contour>
    <contour>
      <point x="300" y="521" type="move" name="_top"/>
    </contour>
  </outline>
</glyph>
<glyph name="ring" format="1">
  <advance width="600.0"/>
  <unicode hex="02DA"/>
  <outline>
    <contour>
      <point x="181" y="703" type="curve" smooth="yes"/>
      <point x="181" y="633"/>
      <point x="233" y="586"/>
      <point x="300" y="586" type="curve" smooth="yes"/>
      <point x="367" y="586"/>
      <point x="420" y="633"/>
      <point x="420" y="703" type="curve" smooth="yes"/>
      <point x="420" y="773"/>
      <point x="367" y="820"/>
      <point x="300" y="820" type="curve" smooth="yes"/>
      <point x="233" y="820"/>
      <point x="181" y="773"/>
    </contour>
    <contour>
      <point x="257" y="703" type="curve" smooth="yes"/>
      <point x="257" y="735"/>
      <point x="274" y="755"/>
      <point x="300" y="755" type="curve" smooth="yes"/>
      <point x="327" y="755"/>
      <point x="344" y="735"/>
      <point x="344" y="703" type="curve" smooth="yes"/>
      <point x="344" y="670"/>
      <point x="326" y="651"/>
      <point x="300" y="651" type="curve" smooth="yes"/>
      <point x="275" y="651"/>
      <point x="257" y="670"/>
    </contour>
    <contour>
      <point x="300" y="521" type="move" name="_top"/>
    </contour>
  </outline>
</glyph>
<glyph name="ogonek" format="1">
  <advance width="600.0"/>
  <unicode hex="02DB"/>
  <outline>
    <contour>
      <point x="233" y="-110" type="curve" smooth="yes"/>
      <point x="233" y="-164"/>
      <point x="274" y="-196"/>
      <point x="331" y="-196" type="curve" smooth="yes"/>
      <point x="366" y="-196"/>
      <point x="393" y="-185"/>
      <point x="418" y="-170" type="curve"/>
      <point x="392" y="-108" type="line"/>
      <point x="377" y="-117"/>
      <point x="362" y="-126"/>
      <point x="342" y="-126" type="curve" smooth="yes"/>
      <point x="323" y="-126"/>
      <point x="310" y="-113"/>
      <point x="310" y="-94" type="curve" smooth="yes"/>
      <point x="310" y="-62"/>
      <point x="340" y="-30"/>
      <point x="404" y="0" type="curve"/>
      <point x="300" y="0" type="line"/>
      <point x="260" y="-27"/>
      <point x="233" y="-65"/>
    </contour>
    <contour>
      <point x="300" y="0" type="move" name="_ogonek"/>
    </contour>
  </outline>
</glyph>
<glyph name="hungarumlaut" format="1">
  <advance width="600.0"/>
  <unicode hex="02DD"/>
  <outline>
    <contour>
      <point x="153" y="596" type="line"/>
      <point x="241" y="596" type="line"/>
      <point x="334" y="746" type="line"/>
      <point x="208" y="746" type="line"/>
    </contour>
    <contour>
      <point x="329" y="596" type="line"/>
      <point x="417" y="596" type="line"/>
      <point x="520" y="746" type="line"/>
      <point x="394" y="746" type="line"/>
    </contour>
    <contour>
      <point x="300" y="521" type="move" name="_top"/>
    </contour>
  </outline>
</glyph>
<glyph name="Omega" format="1">
  <advance width="726.0"/>
  <unicode hex="03A9"/>
  <outline>
    <contour>
      <point x="363" y="576" type="curve" smooth="yes"/>
      <point x="457" y="576"/>
      <point x="526" y="499"/>
      <point x="526" y="365" type="curve" smooth="yes"/>
      <point x="526" y="262"/>
      <point x="484" y="186"/>
      <point x="433" y="140" type="curve"/>
      <point x="433" y="0" type="line"/>
      <point x="656" y="0" type="line"/>
      <point x="656" y="110" type="line"/>
      <point x="486" y="110" type="line"/>
      <point x="433" y="48" type="line"/>
      <point x="558" y="104"/>
      <point x="656" y="214"/>
      <point x="656" y="374" type="curve" smooth="yes"/>
      <point x="656" y="579"/>
      <point x="524" y="701"/>
      <point x="363" y="701" type="curve" smooth="yes"/>
      <point x="202" y="701"/>
      <point x="70" y="579"/>
      <point x="70" y="374" type="curve" smooth="yes"/>
      <point x="70" y="214"/>
      <point x="168" y="104"/>
      <point x="293" y="48" type="curve"/>
      <point x="240" y="110" type="line"/>
      <point x="70" y="110" type="line"/>
      <point x="70" y="0" type="line"/>
      <point x="293" y="0" type="line"/>
      <point x="293" y="140" type="line"/>
      <point x="242" y="186"/>
      <point x="200" y="262"/>
      <point x="200" y="365" type="curve" smooth="yes"/>
      <point x="200" y="499"/>
      <point x="269" y="576"/>
    </contour>
  </outline>
</glyph>
<glyph name="mu" format="1">
  <advance width="617"/>
  <unicode hex="03BC"/>
  <outline>
    <contour>
      <point x="76" y="-185" type="line"/>
      <point x="203" y="-185" type="line"/>
      <point x="175" y="168" type="line"/>
      <point x="142" y="168" type="line"/>
      <point x="142" y="49"/>
      <point x="188" y="-11"/>
      <point x="271" y="-11" type="curve" smooth="yes"/>
      <point x="334" y="-11"/>
      <point x="386" y="29"/>
      <point x="424" y="84" type="curve"/>
      <point x="424" y="172" type="line"/>
      <point x="388" y="130"/>
      <point x="343" y="106"/>
      <point x="298" y="106" type="curve" smooth="yes"/>
      <point x="241" y="106"/>
      <point x="203" y="141"/>
      <point x="203" y="218" type="curve" smooth="yes"/>
      <point x="203" y="521" type="line"/>
      <point x="76" y="521" type="line"/>
    </contour>
    <contour>
      <point x="409" y="132" type="line"/>
      <point x="418" y="88" type="line"/>
      <point x="424" y="17"/>
      <point x="467" y="-11"/>
      <point x="521" y="-11" type="curve"/>
      <point x="540" y="-11"/>
      <point x="562" y="-7"/>
      <point x="579" y="0" type="curve"/>
      <point x="579" y="103" type="line"/>
      <point x="572" y="100"/>
      <point x="566" y="99"/>
      <point x="560" y="99" type="curve"/>
      <point x="545" y="99"/>
      <point x="536" y="107"/>
      <point x="536" y="128" type="curve" smooth="yes"/>
      <point x="536" y="521" type="line"/>
      <point x="409" y="521" type="line"/>
    </contour>
  </outline>
</glyph>
<glyph name="guilsinglright" format="1">
  <advance width="308.0"/>
  <unicode hex="203A"/>
  <outline>
    <contour>
      <point x="26" y="86" type="line"/>
      <point x="163" y="86" type="line"/>
      <point x="269" y="242" type="line"/>
      <point x="269" y="303" type="line"/>
      <point x="173" y="296" type="line"/>
    </contour>
    <contour>
      <point x="26" y="461" type="line"/>
      <point x="173" y="251" type="line"/>
      <point x="269" y="244" type="line"/>
      <point x="269" y="305" type="line"/>
      <point x="163" y="461" type="line"/>
    </contour>
  </outline>
</glyph>
<glyph name="Euro" format="1">
  <advance width="600.0"/>
  <unicode hex="20AC"/>
  <outline>
    <contour>
      <point x="87" y="345" type="curve" smooth="yes"/>
      <point x="87" y="120"/>
      <point x="219" y="-11"/>
      <point x="382" y="-11" type="curve" smooth="yes"/>
      <point x="470" y="-11"/>
      <point x="539" y="19"/>
      <point x="598" y="75" type="curve"/>
      <point x="523" y="175" type="line"/>
      <point x="484" y="138"/>
      <point x="439" y="115"/>
      <point x="384" y="115" type="curve" smooth="yes"/>
      <point x="290" y="115"/>
      <point x="225" y="193"/>
      <point x="225" y="345" type="curve" smooth="yes"/>
      <point x="225" y="497"/>
      <point x="290" y="575"/>
      <point x="384" y="575" type="curve" smooth="yes"/>
      <point x="436" y="575"/>
      <point x="479" y="553"/>
      <point x="518" y="520" type="curve"/>
      <point x="592" y="622" type="line"/>
      <point x="532" y="673"/>
      <point x="463" y="701"/>
      <point x="381" y="701" type="curve" smooth="yes"/>
      <point x="219" y="701"/>
      <point x="87" y="570"/>
    </contour>
    <contour>
      <point x="30" y="209" type="line"/>
      <point x="430" y="209" type="line"/>
      <point x="430" y="307" type="line"/>
      <point x="30" y="307" type="line"/>
    </contour>
    <contour>
      <point x="30" y="383" type="line"/>
      <point x="430" y="383" type="line"/>
      <point x="430" y="481" type="line"/>
      <point x="30" y="481" type="line"/>
    </contour>
  </outline>
</glyph>
<glyph name="numero" format="1">
  <advance width="1138.0"/>
  <unicode hex="2116"/>
  <outline>
    <contour>
      <point x="752" y="490" type="curve" smooth="yes"/>
      <point x="752" y="347"/>
      <point x="827" y="279"/>
      <point x="918" y="279" type="curve" smooth="yes"/>
      <point x="1010" y="279"/>
      <point x="1084" y="347"/>
      <point x="1084" y="490" type="curve" smooth="yes"/>
      <point x="1084" y="633"/>
      <point x="1010" y="701"/>
      <point x="918" y="701" type="curve" smooth="yes"/>
      <point x="827" y="701"/>
      <point x="752" y="633"/>
    </contour>
    <contour>
      <point x="850" y="490" type="curve" smooth="yes"/>
      <point x="850" y="573"/>
      <point x="880" y="612"/>
      <point x="918" y="612" type="curve" smooth="yes"/>
      <point x="956" y="612"/>
      <point x="986" y="573"/>
      <point x="986" y="490" type="curve" smooth="yes"/>
      <point x="986" y="407"/>
      <point x="956" y="368"/>
      <point x="918" y="368" type="curve" smooth="yes"/>
      <point x="880" y="368"/>
      <point x="850" y="407"/>
    </contour>
    <contour>
      <point x="762" y="96" type="line"/>
      <point x="1074" y="96" type="line"/>
      <point x="1074" y="200" type="line"/>
      <point x="762" y="200" type="line"/>
    </contour>
    <contour>
      <point x="91" y="0" type="line"/>
      <point x="216" y="0" type="line"/>
      <point x="216" y="690" type="line"/>
      <point x="91" y="690" type="line"/>
    </contour>
    <contour>
      <point x="142" y="690" type="line"/>
      <point x="488" y="0" type="line"/>
      <point x="618" y="0" type="line"/>
      <point x="272" y="690" type="line"/>
    </contour>
    <contour>
      <point x="538" y="0" type="line"/>
      <point x="663" y="0" type="line"/>
      <point x="663" y="690" type="line"/>
      <point x="538" y="690" type="line"/>
    </contour>
  </outline>
</glyph>
<glyph name="product" format="1">
  <advance width="746.0"/>
  <unicode hex="220F"/>
  <outline>
    <contour>
      <point x="139" y="-185" type="line"/>
      <point x="273" y="-185" type="line"/>
      <point x="273" y="690" type="line"/>
      <point x="139" y="690" type="line"/>
    </contour>
    <contour>
      <point x="57" y="572" type="line"/>
      <point x="689" y="572" type="line"/>
      <point x="689" y="690" type="line"/>
      <point x="57" y="690" type="line"/>
    </contour>
    <contour>
      <point x="473" y="-185" type="line"/>
      <point x="607" y="-185" type="line"/>
      <point x="607" y="690" type="line"/>
      <point x="473" y="690" type="line"/>
    </contour>
  </outline>
</glyph>
<glyph name="approxequal" format="1">
  <advance width="600.0"/>
  <unicode hex="2248"/>
  <outline>
    <contour>
      <point x="116" y="94" type="line"/>
      <point x="138" y="114"/>
      <point x="172" y="138"/>
      <point x="212" y="138" type="curve" smooth="yes"/>
      <point x="282" y="138"/>
      <point x="319" y="90"/>
      <point x="399" y="90" type="curve" smooth="yes"/>
      <point x="459" y="90"/>
      <point x="508" y="127"/>
      <point x="549" y="164" type="curve"/>
      <point x="484" y="244" type="line"/>
      <point x="462" y="224"/>
      <point x="428" y="200"/>
      <point x="388" y="200" type="curve" smooth="yes"/>
      <point x="318" y="200"/>
      <point x="281" y="248"/>
      <point x="201" y="248" type="curve" smooth="yes"/>
      <point x="141" y="248"/>
      <point x="92" y="211"/>
      <point x="51" y="173" type="curve"/>
    </contour>
    <contour>
      <point x="116" y="336" type="line"/>
      <point x="138" y="356"/>
      <point x="172" y="380"/>
      <point x="212" y="380" type="curve" smooth="yes"/>
      <point x="282" y="380"/>
      <point x="319" y="332"/>
      <point x="399" y="332" type="curve" smooth="yes"/>
      <point x="459" y="332"/>
      <point x="508" y="369"/>
      <point x="549" y="407" type="curve"/>
      <point x="484" y="486" type="line"/>
      <point x="462" y="466"/>
      <point x="428" y="442"/>
      <point x="388" y="442" type="curve" smooth="yes"/>
      <point x="318" y="442"/>
      <point x="281" y="490"/>
      <point x="201" y="490" type="curve" smooth="yes"/>
      <point x="141" y="490"/>
      <point x="92" y="453"/>
      <point x="51" y="416" type="curve"/>
    </contour>
  </outline>
</glyph>
<glyph name="notequal" format="1">
  <advance width="600.0"/>
  <unicode hex="2260"/>
  <outline>
    <contour>
      <point x="66" y="111" type="line"/>
      <point x="534" y="111" type="line"/>
      <point x="534" y="223" type="line"/>
      <point x="66" y="223" type="line"/>
    </contour>
    <contour>
      <point x="66" y="357" type="line"/>
      <point x="534" y="357" type="line"/>
      <point x="534" y="469" type="line"/>
      <point x="66" y="469" type="line"/>
    </contour>
    <contour>
      <point x="132" y="-30" type="line"/>
      <point x="248" y="-30" type="line"/>
      <point x="468" y="610" type="line"/>
      <point x="352" y="610" type="line"/>
    </contour>
  </outline>
</glyph>
<glyph name="greaterequal" format="1">
  <advance width="600.0"/>
  <unicode hex="2265"/>
  <outline>
    <contour>
      <point x="95" y="62" type="line"/>
      <point x="530" y="62" type="line"/>
      <point x="530" y="172" type="line"/>
      <point x="95" y="172" type="line"/>
    </contour>
    <contour>
      <point x="95" y="169" type="line"/>
      <point x="530" y="312" type="line"/>
      <point x="530" y="385" type="line"/>
      <point x="431" y="385" type="line"/>
      <point x="95" y="290" type="line"/>
    </contour>
    <contour>
      <point x="95" y="449" type="line"/>
      <point x="431" y="355" type="line"/>
      <point x="530" y="355" type="line"/>
      <point x="530" y="426" type="line"/>
      <point x="95" y="568" type="line"/>
    </contour>
  </outline>
</glyph>
<glyph name="lozenge" format="1">
  <advance width="660.0"/>
  <unicode hex="25CA"/>
  <outline>
    <contour>
      <point x="354" y="-2" type="line"/>
      <point x="175" y="300" type="line"/>
      <point x="44" y="290" type="line"/>
      <point x="282" y="-110" type="line"/>
      <point x="354" y="-110" type="line"/>
    </contour>
    <contour>
      <point x="44" y="290" type="line"/>
      <point x="176" y="290" type="line"/>
      <point x="349" y="582" type="line"/>
      <point x="349" y="690" type="line"/>
      <point x="282" y="690" type="line"/>
    </contour>
    <contour>
      <point x="616" y="290" type="line"/>
      <point x="484" y="290" type="line"/>
      <point x="311" y="-2" type="line"/>
      <point x="311" y="-110" type="line"/>
      <point x="378" y="-110" type="line"/>
    </contour>
    <contour>
      <point x="306" y="582" type="line"/>
      <point x="485" y="280" type="line"/>
      <point x="616" y="290" type="line"/>
      <point x="378" y="690" type="line"/>
      <point x="306" y="690" type="line"/>
    </contour>
  </outline>
</glyph>
<glyph name="f_f" format="1">
  <advance width="729"/>
  <unicode hex="FB00"/>
  <outline>
    <contour>
      <point x="17" y="420" type="line"/>
      <point x="367" y="420" type="line"/>
      <point x="367" y="521" type="line"/>
      <point x="17" y="521" type="line"/>
    </contour>
    <contour>
      <point x="107" y="0" type="line"/>
      <point x="234" y="0" type="line"/>
      <point x="234" y="537" type="line" smooth="yes"/>
      <point x="234" y="594"/>
      <point x="257" y="626"/>
      <point x="310" y="626" type="curve" smooth="yes"/>
      <point x="332" y="626"/>
      <point x="355" y="622"/>
      <point x="379" y="613" type="curve"/>
      <point x="396" y="711" type="line"/>
      <point x="363" y="723"/>
      <point x="323" y="731"/>
      <point x="288" y="731" type="curve" smooth="yes"/>
      <point x="179" y="731"/>
      <point x="107" y="659"/>
      <point x="107" y="537" type="curve" smooth="yes"/>
    </contour>
    <contour>
      <point x="367" y="420" type="line"/>
      <point x="727" y="420" type="line"/>
      <point x="727" y="521" type="line"/>
      <point x="367" y="521" type="line"/>
    </contour>
    <contour>
      <point x="457" y="0" type="line"/>
      <point x="584" y="0" type="line"/>
      <point x="584" y="537" type="line" smooth="yes"/>
      <point x="584" y="594"/>
      <point x="608" y="626"/>
      <point x="660" y="626" type="curve" smooth="yes"/>
      <point x="682" y="626"/>
      <point x="706" y="622"/>
      <point x="730" y="613" type="curve"/>
      <point x="746" y="711" type="line"/>
      <point x="714" y="723"/>
      <point x="674" y="731"/>
      <point x="638" y="731" type="curve" smooth="yes"/>
      <point x="530" y="731"/>
      <point x="457" y="659"/>
      <point x="457" y="537" type="curve" smooth="yes"/>
    </contour>
  </outline>
</glyph>
<glyph name="I.alt" format="1">
  <advance width="316"/>
  <outline>
    <contour>
      <point x="91" y="0" type="line"/>
      <point x="225" y="0" type="line"/>
      <point x="225" y="690" type="line"/>
      <point x="91" y="690" type="line"/>
    </contour>
    <contour>
      <point x="158" y="690" type="move" name="top"/>
    </contour>
    <contour>
      <point x="91" y="0" type="move" name="ogonek"/>
    </contour>
    <contour>
      <point x="158" y="0" type="move" name="bottom"/>
    </contour>
  </outline>
</glyph>
<glyph name="a.alt" format="1">
  <advance width="556"/>
  <outline>
    <contour>
      <point x="45" y="136" type="curve"/>
      <point x="45" y="46"/>
      <point x="114" y="-11"/>
      <point x="195" y="-11" type="curve"/>
      <point x="266" y="-11"/>
      <point x="329" y="27"/>
      <point x="364" y="81" type="curve"/>
      <point x="364" y="161" type="line"/>
      <point x="326" y="117"/>
      <point x="277" y="90"/>
      <point x="227" y="90" type="curve"/>
      <point x="189" y="90"/>
      <point x="164" y="111"/>
      <point x="164" y="149" type="curve"/>
      <point x="164" y="187"/>
      <point x="195" y="223"/>
      <point x="300" y="230" type="curve" smooth="yes"/>
      <point x="372" y="235" type="line"/>
      <point x="372" y="312" type="line"/>
      <point x="292" y="310" type="line" smooth="yes"/>
      <point x="118" y="304"/>
      <point x="45" y="229"/>
    </contour>
    <contour>
      <point x="61" y="485" type="curve"/>
      <point x="98" y="383" type="line"/>
      <point x="139" y="404"/>
      <point x="186" y="422"/>
      <point x="241" y="422" type="curve"/>
      <point x="312" y="422"/>
      <point x="349" y="387"/>
      <point x="349" y="316" type="curve" smooth="yes"/>
      <point x="349" y="132" type="line"/>
      <point x="355" y="88" type="line"/>
      <point x="361" y="17"/>
      <point x="407" y="-11"/>
      <point x="461" y="-11" type="curve"/>
      <point x="480" y="-11"/>
      <point x="502" y="-7"/>
      <point x="518" y="0" type="curve"/>
      <point x="518" y="103" type="line"/>
      <point x="512" y="100"/>
      <point x="506" y="99"/>
      <point x="499" y="99" type="curve"/>
      <point x="484" y="99"/>
      <point x="475" y="107"/>
      <point x="475" y="128" type="curve" smooth="yes"/>
      <point x="475" y="326" type="line" smooth="yes"/>
      <point x="475" y="462"/>
      <point x="385" y="532"/>
      <point x="259" y="532" type="curve"/>
      <point x="186" y="532"/>
      <point x="111" y="510"/>
    </contour>
    <contour>
      <point x="264" y="521" type="move" name="top"/>
    </contour>
    <contour>
      <point x="414" y="0" type="move" name="ogonek"/>
    </contour>
    <contour>
      <point x="264" y="0" type="move" name="bottom"/>
    </contour>
  </outline>
</glyph>
<glyph name="acute.cap" format="1">
  <advance width="600.0"/>
  <outline>
    <contour>
      <point x="238" y="750" type="line"/>
      <point x="349" y="750" type="line"/>
      <point x="496" y="885" type="line"/>
      <point x="344" y="885" type="line"/>
    </contour>
    <contour>
      <point x="300" y="690" type="move" name="_top"/>
    </contour>
  </outline>
</glyph>
<glyph name="caron.cap" format="1">
  <advance width="600.0"/>
  <outline>
    <contour>
      <point x="126" y="885" type="line"/>
      <point x="227" y="750" type="line"/>
      <point x="370" y="750" type="line"/>
      <point x="235" y="885" type="line"/>
    </contour>
    <contour>
      <point x="232" y="750" type="line"/>
      <point x="374" y="750" type="line"/>
      <point x="475" y="885" type="line"/>
      <point x="366" y="885" type="line"/>
    </contour>
    <contour>
      <point x="300" y="690" type="move" name="_top"/>
    </contour>
  </outline>
</glyph>
<glyph name="commaaccent" format="1">
  <advance width="600.0"/>
  <outline>
    <contour>
      <point x="247" y="-334" type="line"/>
      <point x="314" y="-334" type="line"/>
      <point x="348" y="-244" type="line" smooth="yes"/>
      <point x="362" y="-208"/>
      <point x="371" y="-184"/>
      <point x="371" y="-152" type="curve" smooth="yes"/>
      <point x="371" y="-108"/>
      <point x="343" y="-78"/>
      <point x="300" y="-78" type="curve" smooth="yes"/>
      <point x="258" y="-78"/>
      <point x="229" y="-108"/>
      <point x="229" y="-148" type="curve" smooth="yes"/>
      <point x="229" y="-184"/>
      <point x="251" y="-207"/>
      <point x="278" y="-215" type="curve"/>
    </contour>
    <contour>
      <point x="300" y="-6" type="move" name="_bottom"/>
    </contour>
  </outline>
</glyph>
<glyph name="grave.cap" format="1">
  <advance width="600.0"/>
  <outline>
    <contour>
      <point x="104" y="885" type="line"/>
      <point x="251" y="750" type="line"/>
      <point x="362" y="750" type="line"/>
      <point x="256" y="885" type="line"/>
    </contour>
    <contour>
      <point x="300" y="690" type="move" name="_top"/>
    </contour>
  </outline>
</glyph>
<glyph name="macron.cap" format="1">
  <advance width="600.0"/>
  <outline>
    <contour>
      <point x="139" y="772" type="line"/>
      <point x="461" y="772" type="line"/>
      <point x="461" y="868" type="line"/>
      <point x="139" y="868" type="line"/>
    </contour>
    <contour>
      <point x="300" y="690" type="move" name="_top"/>
    </contour>
  </outline>
</glyph>
<glyph name="ring.cap" format="1">
  <advance width="600.0"/>
  <outline>
    <contour>
      <point x="181" y="847" type="curve" smooth="yes"/>
      <point x="181" y="783"/>
      <point x="233" y="740"/>
      <point x="300" y="740" type="curve" smooth="yes"/>
      <point x="367" y="740"/>
      <point x="420" y="783"/>
      <point x="420" y="847" type="curve" smooth="yes"/>
      <point x="420" y="911"/>
      <point x="367" y="954"/>
      <point x="300" y="954" type="curve" smooth="yes"/>
      <point x="233" y="954"/>
      <point x="181" y="911"/>
    </contour>
    <contour>
      <point x="257" y="847" type="curve" smooth="yes"/>
      <point x="257" y="873"/>
      <point x="275" y="889"/>
      <point x="300" y="889" type="curve" smooth="yes"/>
      <point x="326" y="889"/>
      <point x="344" y="873"/>
      <point x="344" y="847" type="curve" smooth="yes"/>
      <point x="344" y="821"/>
      <point x="326" y="805"/>
      <point x="300" y="805" type="curve" smooth="yes"/>
      <point x="275" y="805"/>
      <point x="257" y="821"/>
    </contour>
    <contour>
      <point x="300" y="690" type="move" name="_top"/>
    </contour>
  </outline>
</glyph>
<glyph name="ring_acute.cap" format="1">
  <advance width="600.0"/>
  <outline>
    <component base="acute.cap" yOffset="244"/>
    <component base="ring.cap"/>
    <contour>
      <point x="300" y="690" type="move" name="_top"/>
    </contour>
  </outline>
</glyph>
<glyph name="ring_acute" format="1">
  <advance width="600.0"/>
  <outline>
    <component base="ring"/>
    <component base="acute" yOffset="264"/>
    <contour>
      <point x="300" y="521" type="move" name="_top"/>
    </contour>
  </outline>
</glyph>
